<?xml version="1.0" standalone="no"?>
<!DOCTYPE svg PUBLIC "-//W3C//DTD SVG 20010904//EN"
 "http://www.w3.org/TR/2001/REC-SVG-20010904/DTD/svg10.dtd">
<svg version="1.0" xmlns="http://www.w3.org/2000/svg"
 width="1379.000000pt" height="1379.000000pt" viewBox="0 0 1379.000000 1379.000000"
 preserveAspectRatio="xMidYMid meet">
<metadata>
Created by potrace 1.14, written by Peter Selinger 2001-2017
</metadata>
<g transform="translate(0.000000,1379.000000) scale(0.100000,-0.100000)"
fill="#000000" stroke="none">
<path d="M6748 11285 c-2 -2 -63 -6 -136 -9 -73 -4 -138 -9 -145 -11 -6 -2
-41 -6 -77 -10 -36 -3 -78 -7 -95 -10 -16 -3 -42 -7 -58 -9 -15 -3 -55 -10
-90 -16 -34 -7 -71 -13 -82 -15 -152 -19 -541 -134 -785 -232 -209 -84 -215
-87 -220 -93 -3 -3 -39 -21 -80 -40 -256 -120 -568 -319 -825 -525 -176 -142
-284 -242 -445 -411 -246 -259 -489 -592 -657 -899 -57 -105 -162 -321 -168
-348 -4 -15 -11 -27 -16 -27 -5 0 -9 -5 -9 -12 0 -10 -44 -127 -81 -213 -27
-65 -136 -428 -145 -485 -3 -19 -8 -39 -12 -44 -3 -5 -6 -19 -7 -31 -2 -12 -8
-46 -14 -76 -22 -108 -29 -143 -36 -198 -2 -14 -4 -26 -5 -26 -1 0 -3 -16 -5
-35 -2 -19 -6 -53 -9 -75 -3 -22 -8 -71 -12 -110 -4 -38 -12 -76 -18 -84 -8
-11 -8 -13 0 -8 9 5 10 -10 6 -56 -3 -34 -6 -142 -7 -239 0 -98 -4 -178 -8
-178 -5 0 -5 -6 0 -12 4 -7 8 -42 9 -78 1 -36 3 -65 4 -65 1 0 3 -22 5 -50 8
-118 20 -232 35 -315 6 -30 16 -89 23 -130 8 -41 13 -85 12 -97 -1 -12 2 -20
7 -17 4 3 8 -7 9 -23 0 -15 2 -35 4 -43 3 -12 48 -182 59 -225 2 -5 6 -17 9
-25 14 -37 27 -87 29 -112 1 -16 5 -28 9 -28 7 0 32 -83 32 -106 0 -7 4 -11 9
-8 7 5 9 -1 12 -38 1 -7 4 -15 7 -18 10 -9 58 -141 55 -153 -1 -7 -1 -8 2 -3
3 5 11 -6 18 -24 8 -17 11 -37 7 -43 -3 -6 -1 -7 5 -3 7 4 12 3 12 -3 0 -5 14
-39 31 -76 17 -36 31 -75 32 -85 1 -10 4 -17 9 -14 9 6 30 -34 23 -45 -3 -5
-1 -11 4 -13 8 -3 78 -125 119 -208 9 -19 19 -37 22 -40 19 -18 40 -63 34 -73
-4 -7 -4 -9 1 -5 5 5 44 -47 89 -115 44 -67 84 -125 89 -128 5 -4 6 -12 2 -19
-5 -8 -4 -11 3 -6 6 4 25 -14 43 -41 18 -27 37 -51 43 -55 6 -4 7 -8 2 -8 -5
0 3 -9 18 -21 14 -11 26 -25 26 -31 0 -6 10 -19 22 -29 11 -11 18 -19 14 -19
-4 0 6 -11 21 -25 24 -21 26 -26 13 -35 -12 -9 -10 -10 8 -5 20 6 32 -8 15
-18 -5 -2 -3 -2 4 -1 6 2 24 -13 40 -33 15 -19 38 -44 51 -56 12 -12 20 -27
17 -35 -3 -7 0 -10 6 -6 12 7 89 -68 89 -86 0 -6 5 -8 10 -5 6 3 10 -1 10 -10
0 -10 5 -13 12 -9 8 5 9 2 5 -10 -4 -9 -3 -15 3 -11 10 6 106 -84 102 -97 -1
-5 2 -7 7 -4 5 3 21 -8 35 -25 14 -17 26 -28 26 -24 0 4 22 -15 49 -42 26 -26
52 -50 57 -53 5 -3 8 -9 6 -13 -1 -5 1 -6 6 -3 5 3 23 -7 40 -23 26 -22 29
-30 19 -41 -10 -12 -9 -12 5 -1 14 11 20 11 32 -1 7 -7 25 -21 40 -32 14 -10
23 -22 20 -27 -3 -5 2 -6 12 -2 13 5 15 2 10 -18 -3 -13 -3 -18 0 -11 6 13 30
17 36 5 2 -5 22 -21 45 -37 24 -16 40 -33 36 -39 -3 -6 -1 -7 5 -3 18 11 37
-4 21 -16 -11 -7 -9 -8 4 -4 20 6 50 -17 39 -29 -4 -5 -1 -5 6 -1 16 10 131
-63 133 -84 0 -10 2 -11 6 -2 3 9 12 7 33 -8 15 -11 33 -20 39 -20 6 0 11 -7
11 -16 0 -8 5 -12 11 -9 5 4 27 -4 47 -17 20 -14 45 -27 55 -31 11 -4 15 -12
11 -18 -4 -7 -3 -9 4 -5 6 3 46 -12 90 -33 43 -22 90 -45 105 -50 15 -6 27
-15 27 -21 0 -6 4 -9 8 -6 12 7 94 -32 88 -42 -3 -5 6 -7 19 -4 17 3 27 -1 31
-12 3 -9 10 -14 14 -11 10 6 70 -14 70 -24 0 -4 12 -8 28 -9 15 -1 29 -7 30
-12 2 -6 15 -10 28 -10 13 0 24 -5 24 -12 0 -6 3 -9 6 -5 8 8 65 -13 88 -32
12 -10 17 -11 12 -3 -7 12 -4 12 15 1 13 -7 29 -14 34 -14 16 -2 69 -17 80
-24 6 -3 21 -7 35 -9 13 -2 28 -9 32 -15 4 -7 8 -7 8 -2 0 6 5 3 10 -5 7 -11
10 -11 10 -2 0 8 5 10 13 5 6 -4 17 -8 22 -10 101 -20 251 -59 253 -65 2 -5 7
-6 11 -3 5 2 48 -3 98 -13 77 -14 90 -20 87 -35 -1 -11 1 -16 4 -12 4 4 7 11
7 16 0 5 3 9 8 9 4 0 12 0 18 0 8 0 7 -6 -2 -18 -13 -16 -13 -16 7 0 16 14 23
15 34 5 10 -9 11 -9 6 1 -4 6 -2 12 3 12 6 0 11 -5 11 -11 0 -5 5 -7 11 -3 6
3 15 0 20 -7 6 -10 9 -11 9 -1 0 6 5 12 11 12 5 0 7 -6 3 -12 -6 -10 -4 -10 7
-2 10 7 36 7 89 -2 41 -6 69 -12 61 -13 -8 0 -11 -4 -8 -7 4 -4 14 -1 22 6 12
10 21 10 40 2 18 -8 25 -8 25 -1 0 6 8 3 18 -8 9 -10 14 -14 9 -7 -5 8 13 11
68 10 41 -1 75 -3 75 -6 0 -3 30 -4 66 -2 43 2 64 0 60 -7 -4 -5 -2 -13 4 -16
6 -4 9 -1 8 7 -2 10 14 13 62 15 79 2 97 -2 81 -20 -8 -10 -7 -14 3 -14 9 0
13 8 10 21 -3 19 1 21 39 21 23 -1 48 -5 56 -9 9 -6 12 -5 8 1 -3 5 12 9 36
10 23 0 49 2 57 4 9 2 14 -2 12 -11 -2 -12 1 -11 11 2 11 13 34 18 109 20 53
2 94 6 91 11 -2 4 15 8 39 9 57 2 61 2 77 12 11 7 12 6 6 -5 -8 -12 -6 -12 8
0 11 9 17 10 17 2 0 -6 5 -11 10 -11 6 0 9 6 8 13 -2 6 3 11 11 9 8 -2 31 4
52 12 22 9 39 14 39 11 0 -2 15 9 32 26 18 16 35 29 38 29 3 0 16 18 30 39 13
22 26 38 29 36 6 -3 11 38 15 108 0 15 5 27 11 27 7 0 6 3 0 8 -9 6 -34 80
-37 109 -1 7 -4 10 -8 8 -4 -2 -17 9 -29 25 -12 17 -44 43 -71 58 -28 16 -48
31 -46 33 11 10 -157 -1 -237 -17 -10 -2 -45 -6 -76 -10 -31 -3 -65 -8 -75
-10 -125 -23 -599 -23 -806 1 -222 26 -632 110 -615 127 4 4 -1 4 -12 2 -24
-6 -47 47 -29 67 8 9 8 10 -1 5 -9 -5 -13 2 -13 24 0 22 4 29 13 25 6 -4 5 -1
-4 7 -21 18 -31 48 -16 48 8 0 6 4 -3 10 -10 6 -11 10 -2 10 6 0 12 5 12 11 0
5 -4 7 -10 4 -10 -6 -12 14 -14 128 0 31 -5 57 -10 57 -5 0 -1 10 10 22 10 12
13 18 7 14 -12 -7 -19 14 -13 39 1 6 2 28 1 49 0 21 5 46 12 54 9 12 9 14 0 8
-16 -9 -5 55 11 66 8 6 8 8 -1 8 -10 0 -6 24 22 130 2 8 4 21 4 28 1 7 5 11 9
8 4 -3 7 8 6 25 -1 16 2 29 7 29 5 0 9 -5 9 -12 0 -6 3 -8 6 -5 4 4 2 13 -5
20 -9 11 -6 21 11 43 13 15 17 25 11 21 -8 -5 -5 7 5 30 35 75 42 85 57 73 10
-8 15 -8 21 1 4 7 3 9 -3 6 -6 -4 -16 0 -23 8 -7 8 -8 15 -3 15 4 0 17 16 27
35 10 19 23 32 29 28 6 -3 7 -1 3 5 -4 7 12 36 36 67 35 45 48 54 68 51 22 -4
23 -3 8 8 -16 12 -16 14 5 35 13 11 27 18 30 14 4 -3 7 0 7 9 0 8 28 41 62 73
54 51 62 56 73 42 7 -9 15 -14 18 -10 10 10 8 25 -2 18 -5 -3 -13 -1 -16 5 -9
14 56 71 73 65 7 -3 10 0 7 6 -9 14 15 41 31 35 8 -3 13 -2 13 2 -4 23 3 34
17 28 8 -3 12 -2 9 4 -6 9 50 65 65 65 5 0 12 4 17 9 5 5 3 6 -4 2 -7 -4 -13
-2 -13 3 0 6 7 11 17 11 9 0 14 3 11 6 -3 3 6 18 21 33 14 15 37 40 49 57 13
16 20 23 16 15 -5 -10 -3 -12 5 -7 7 5 10 15 7 23 -4 10 -2 13 8 10 17 -7 40
18 31 33 -8 13 19 52 30 42 5 -4 5 -2 1 5 -5 10 48 129 65 143 3 3 5 13 3 22
-1 10 2 20 7 24 5 3 9 14 9 25 0 10 4 19 8 19 4 0 8 8 9 18 5 59 16 119 24
129 7 7 5 13 -3 16 -11 4 -10 6 0 6 7 1 10 6 7 11 -4 6 -1 18 7 27 9 12 9 15
1 9 -9 -5 -13 0 -13 14 0 13 4 19 12 14 7 -5 8 -3 2 7 -13 20 -13 81 0 98 8
11 8 13 -1 7 -8 -4 -13 -2 -13 6 0 8 6 20 13 27 10 11 9 12 -2 6 -11 -6 -13
-1 -9 24 2 17 2 31 -1 31 -6 0 -13 77 -14 153 -1 20 -5 37 -10 37 -4 0 -7 8
-6 18 1 9 0 19 -1 22 -1 3 -3 14 -5 25 -2 11 -6 31 -9 45 -3 14 -10 48 -17 75
-6 28 -13 57 -16 65 -7 19 -10 29 -14 60 -2 14 -7 27 -11 30 -4 4 -9 22 -10
42 -2 20 -5 34 -8 32 -8 -8 -40 98 -33 109 3 6 1 7 -5 3 -7 -4 -12 -1 -12 7 0
7 -9 32 -20 55 -11 22 -20 46 -20 52 0 5 -5 10 -11 10 -6 0 -9 7 -5 15 3 8 2
15 -2 15 -13 0 -43 70 -36 82 4 7 2 8 -4 4 -12 -7 -35 27 -25 38 3 3 2 6 -3 6
-6 0 -21 19 -34 43 -45 82 -142 218 -197 277 -18 19 -31 40 -28 47 2 8 -2 10
-12 6 -12 -5 -15 -2 -10 10 3 9 3 16 -2 14 -12 -3 -101 80 -93 88 4 3 2 5 -3
3 -14 -4 -126 88 -117 97 4 4 2 6 -3 5 -19 -4 -31 0 -51 18 -16 15 -157 87
-219 113 -40 17 -171 48 -230 54 -277 32 -537 -50 -816 -256 -46 -34 -149
-116 -229 -183 -255 -213 -341 -274 -455 -320 -118 -47 -237 -52 -340 -14 -47
18 -144 66 -160 80 -8 7 -48 40 -88 72 -39 33 -99 91 -132 129 -33 38 -66 75
-73 83 -7 8 -10 19 -6 25 4 8 3 9 -4 5 -7 -4 -12 -4 -12 1 0 4 -14 24 -30 43
-17 19 -33 43 -36 53 -3 9 -10 17 -15 17 -6 0 -7 5 -4 10 3 6 2 10 -2 10 -5 0
-14 10 -22 21 -11 18 -11 23 1 31 10 8 9 9 -4 4 -21 -6 -37 19 -32 49 2 11 6
38 8 60 2 22 7 59 11 83 4 24 8 50 9 57 1 8 5 17 8 21 4 3 4 12 1 20 -3 8 0
14 6 14 6 0 8 7 4 15 -3 9 2 22 13 31 18 14 18 14 -1 8 -19 -5 -19 -5 -2 9 11
9 14 16 7 19 -8 2 -8 12 1 33 7 17 13 42 14 57 2 15 6 35 10 45 9 21 12 30 19
60 11 50 41 138 49 144 4 3 7 10 6 15 -3 19 1 35 10 30 4 -3 7 6 5 20 -2 18 1
24 11 20 8 -3 17 -1 20 5 4 5 1 8 -7 7 -7 -2 -11 4 -9 12 2 8 5 22 6 30 2 8 4
16 5 18 2 1 3 7 4 14 0 6 6 13 13 15 8 3 10 -4 7 -21 -2 -13 -1 -27 4 -30 10
-6 9 45 -1 60 -8 14 12 76 23 69 4 -2 8 7 8 21 0 15 5 30 12 34 7 4 10 12 6
18 -3 6 1 17 9 26 9 8 17 19 18 23 1 4 5 7 9 6 4 -2 5 4 1 13 -3 8 3 22 13 30
11 9 14 13 7 10 -8 -5 -9 1 0 23 6 17 14 28 19 25 4 -3 5 2 2 10 -4 10 -1 16
7 16 7 0 10 3 6 6 -3 3 3 23 14 44 16 29 25 38 41 35 11 -3 18 -2 14 2 -3 4 2
16 11 27 15 17 15 19 1 8 -9 -7 -19 -9 -21 -5 -8 13 9 37 20 30 5 -3 10 0 10
8 0 8 -5 11 -11 7 -6 -3 -4 5 5 18 9 14 22 36 30 50 8 14 17 27 20 30 3 3 12
17 20 31 26 50 99 164 123 194 19 24 26 27 38 17 12 -9 15 -9 15 3 0 7 -3 13
-6 12 -3 -1 -7 3 -7 8 -2 18 8 35 22 35 7 0 11 6 9 13 -2 6 4 23 15 36 18 20
22 22 38 10 15 -13 16 -12 4 3 -12 15 -11 22 8 48 12 17 27 27 33 24 7 -4 9
-4 5 1 -11 11 10 45 28 45 9 0 12 5 8 11 -4 7 9 28 29 48 52 53 96 101 125
139 18 24 31 32 45 28 14 -3 17 -2 9 6 -14 14 92 122 111 112 6 -4 9 -3 4 1
-9 11 43 66 55 59 5 -3 7 -2 6 3 -5 16 118 127 131 118 5 -2 11 5 14 17 4 12
9 19 12 16 4 -4 19 7 34 24 25 28 30 30 52 18 20 -10 22 -10 12 1 -14 15 -18
33 -5 25 5 -3 15 4 23 15 26 38 48 43 77 17 15 -12 21 -16 14 -6 -10 13 -10
17 0 22 8 3 6 5 -4 3 -9 -1 -16 3 -15 8 1 6 5 9 10 7 4 -1 6 1 5 5 -2 5 1 9 5
10 5 1 15 10 23 20 7 10 14 14 14 10 0 -5 7 -1 17 8 30 30 94 66 105 59 7 -4
8 -3 4 4 -9 14 39 46 55 36 8 -4 9 -3 5 5 -5 7 4 15 23 22 17 6 31 15 31 20 0
14 22 11 40 -6 14 -13 16 -12 17 8 2 15 0 18 -6 8 -6 -9 -11 -10 -15 -3 -8 13
30 36 44 27 6 -4 9 -1 8 6 -2 6 3 14 10 16 8 3 10 -2 6 -14 -3 -10 2 -5 11 10
9 15 20 25 25 22 6 -4 10 -1 10 5 0 6 5 8 10 5 6 -4 7 -11 4 -17 -4 -7 -2 -8
4 -4 6 4 8 14 5 23 -5 12 -2 15 10 10 9 -3 17 -2 17 3 0 5 10 14 21 21 12 6
19 7 15 1 -3 -5 0 -12 8 -15 10 -4 12 0 8 15 -3 14 -1 19 6 15 5 -4 12 -3 14
2 1 5 34 23 72 40 50 22 66 27 62 15 -3 -8 -2 -12 4 -9 6 3 10 13 10 21 0 8 5
14 11 14 6 0 8 -7 5 -16 -3 -8 -2 -12 4 -9 6 3 10 12 10 20 0 7 7 16 16 19 23
9 26 8 19 -6 -4 -7 0 -5 8 4 13 16 15 16 33 0 10 -9 13 -10 6 -2 -17 19 -15
33 3 26 8 -3 15 -1 15 4 0 8 53 29 85 34 8 1 18 5 21 9 4 4 13 2 21 -5 11 -9
12 -7 7 7 -5 13 -3 16 7 13 8 -3 14 -10 14 -15 0 -6 3 -15 7 -18 4 -4 5 3 3
16 -4 22 1 26 55 42 61 18 77 18 72 4 -1 -5 2 -6 8 -2 6 3 7 11 4 17 -5 7 0 9
14 6 12 -4 20 -3 17 2 -8 13 72 29 86 16 9 -8 10 -8 5 1 -4 8 6 16 31 22 73
19 119 28 136 25 9 -1 17 2 17 6 0 5 8 9 18 9 27 2 66 8 82 14 31 12 99 14
111 3 9 -8 10 -8 5 1 -3 6 -2 14 4 18 5 3 10 0 10 -7 0 -9 3 -9 8 -2 4 6 19
10 35 10 15 -1 27 2 27 6 0 4 8 7 18 6 9 -1 51 1 92 6 118 12 144 13 159 1 11
-7 13 -7 8 2 -11 18 55 21 71 3 8 -8 11 -10 8 -4 -6 12 29 26 39 16 11 -11 35
-10 35 1 0 6 7 2 15 -9 10 -12 14 -14 13 -5 -2 10 7 15 32 16 19 0 40 -2 45
-5 6 -2 21 -5 35 -5 14 0 36 -6 50 -13 23 -12 23 -12 6 2 -17 14 -16 15 17 13
22 -1 32 -6 27 -12 -5 -5 -8 -14 -9 -20 0 -5 -3 -25 -6 -43 -5 -29 -8 -32 -23
-21 -14 11 -15 11 -4 -1 13 -15 17 -54 5 -47 -5 3 -9 -13 -10 -35 -2 -23 -8
-47 -14 -54 -6 -8 -9 -14 -6 -14 3 0 1 -16 -5 -36 -5 -20 -11 -44 -13 -53 -2
-9 -10 -50 -18 -91 -9 -41 -19 -97 -22 -125 -4 -27 -8 -57 -10 -65 -23 -89
-24 -492 -2 -605 3 -11 8 -42 11 -70 9 -62 51 -218 72 -267 9 -20 13 -42 9
-49 -5 -8 -4 -10 3 -5 11 6 16 -6 13 -26 0 -5 2 -8 7 -8 12 0 34 -59 26 -71
-4 -7 -3 -9 4 -5 6 3 17 -6 25 -21 28 -56 60 -109 88 -147 22 -30 26 -42 16
-49 -8 -6 -7 -7 5 -4 10 4 22 -3 31 -16 8 -12 27 -35 41 -50 23 -25 25 -31 14
-45 -11 -15 -11 -15 3 -5 13 11 20 8 42 -15 15 -16 24 -32 20 -37 -5 -4 -2 -5
5 -1 7 4 12 2 12 -5 0 -7 3 -9 7 -6 3 4 19 -6 34 -22 15 -16 30 -27 33 -23 3
3 6 1 6 -5 0 -6 14 -16 30 -23 17 -7 30 -16 30 -20 0 -4 11 -11 25 -14 16 -4
23 -11 19 -18 -4 -6 -3 -8 3 -5 6 4 24 0 39 -8 16 -8 34 -15 41 -15 7 0 24
-12 39 -27 15 -16 21 -20 14 -10 -12 17 -11 18 16 11 16 -4 30 -11 32 -15 2
-4 10 -5 18 -2 8 3 14 1 14 -4 0 -5 13 -8 29 -5 16 2 32 -1 36 -8 5 -8 10 -8
21 1 8 6 14 8 14 3 0 -5 29 -9 65 -9 36 0 65 2 65 5 0 3 15 6 33 6 17 1 46 5
62 9 25 7 28 6 20 -6 -5 -8 -3 -7 6 2 8 9 41 24 72 33 31 9 59 21 62 26 3 6
11 10 17 10 6 0 6 -6 -2 -15 -7 -9 -11 -18 -8 -20 3 -3 11 6 18 20 15 28 29
31 50 13 12 -11 12 -10 1 4 -11 14 -8 19 20 34 18 9 48 25 67 35 18 11 38 16
44 13 7 -5 8 -2 3 6 -6 10 -4 12 8 7 12 -4 14 -2 10 10 -4 11 -2 14 5 9 7 -4
12 -2 12 3 0 6 6 11 13 11 7 0 24 11 39 25 15 14 30 24 32 23 2 -2 16 7 30 19
14 13 26 20 26 18 0 -3 10 4 22 15 12 11 28 18 36 15 7 -2 10 0 7 5 -3 6 2 13
12 17 10 4 20 9 23 12 7 8 59 39 100 59 19 9 38 22 42 27 5 6 8 4 8 -5 1 -12
2 -12 10 2 9 15 64 35 83 30 4 -1 7 2 7 7 0 13 170 37 196 27 14 -5 14 -9 3
-24 -13 -15 -12 -16 3 -3 10 7 15 17 12 22 -6 10 19 12 29 3 4 -4 23 -8 43
-10 28 -3 106 -38 133 -60 2 -2 -2 -12 -10 -21 -13 -17 -13 -17 6 -1 15 12 23
13 32 5 27 -26 43 -37 43 -30 0 4 4 3 8 -3 9 -14 179 -99 215 -108 25 -6 27
-9 16 -24 -11 -14 -11 -15 1 -4 15 13 44 17 37 5 -3 -5 5 -8 16 -9 23 -1 34
-3 132 -30 33 -9 68 -16 78 -17 10 -1 15 -7 13 -14 -3 -7 -1 -13 4 -13 6 0 10
6 10 14 0 9 8 12 25 8 14 -2 25 -9 25 -16 0 -6 4 -6 9 3 5 8 11 9 15 3 3 -6
20 -8 37 -5 24 3 29 2 23 -9 -6 -10 -5 -11 8 -1 8 7 18 10 21 7 3 -4 40 -6 81
-5 l75 1 32 -66 c18 -37 32 -73 32 -80 0 -8 4 -14 8 -14 11 0 30 -61 22 -73
-3 -5 -1 -7 4 -4 19 12 160 -395 166 -478 1 -11 5 -22 9 -25 6 -5 29 -103 62
-270 7 -34 33 -221 41 -295 4 -33 8 -67 9 -75 1 -8 10 -33 20 -55 11 -22 18
-44 17 -50 -2 -5 0 -7 4 -3 4 3 19 -6 33 -22 33 -33 99 -70 127 -70 12 0 27
-6 34 -12 8 -7 11 -8 8 -3 -3 6 3 11 13 11 10 0 16 -5 12 -11 -3 -5 1 -4 10 3
13 10 17 10 21 0 4 -10 6 -10 6 0 1 6 6 12 12 12 5 0 8 -4 4 -9 -3 -5 -1 -13
5 -16 6 -4 10 -3 9 2 -3 20 2 33 14 33 21 1 88 36 80 43 -3 4 -1 7 5 7 6 0 22
16 35 35 13 19 27 32 31 27 4 -4 7 0 6 8 -4 29 0 40 18 41 10 0 12 3 5 6 -7 2
-13 11 -13 19 0 9 3 13 8 11 8 -6 9 73 1 88 -3 6 -5 31 -5 57 1 27 -3 48 -8
48 -5 0 -1 9 8 19 13 14 14 21 5 27 -7 4 -10 3 -5 -4 3 -6 2 -13 -3 -16 -7 -5
-23 99 -25 169 -1 11 -4 22 -8 25 -4 3 -9 28 -11 55 -3 28 -7 57 -10 65 -13
36 -17 71 -8 66 5 -4 13 -1 17 5 4 7 3 9 -3 6 -17 -11 -28 13 -48 98 -10 44
-20 86 -23 94 -4 10 -1 12 9 6 10 -6 10 -3 -2 11 -19 22 -41 103 -32 117 3 6
2 7 -4 4 -9 -5 -40 88 -35 106 1 4 -2 7 -6 7 -5 0 -9 6 -10 13 -3 37 -8 53
-20 66 -10 10 -10 16 -1 28 10 11 10 13 0 11 -7 -2 -19 16 -27 42 -8 25 -19
54 -24 65 -41 89 -60 141 -55 152 2 8 1 12 -4 9 -12 -7 -54 91 -45 106 4 7 4
10 -1 6 -5 -5 -15 1 -22 12 -12 17 -12 24 -2 36 10 12 9 13 -3 9 -11 -5 -25
13 -51 66 -20 40 -34 76 -30 82 3 6 1 7 -5 3 -7 -4 -12 -1 -12 8 0 9 -4 16
-10 16 -5 0 -10 5 -10 12 0 15 -80 152 -92 156 -4 2 -6 7 -3 12 3 4 -2 13 -10
20 -8 7 -15 21 -15 32 0 10 -4 17 -8 14 -4 -2 -20 17 -35 43 -14 27 -33 54
-42 61 -8 7 -15 18 -15 25 0 8 -4 15 -8 17 -4 2 -28 32 -52 68 -25 36 -51 71
-58 78 -7 8 -9 18 -6 24 4 6 3 8 -3 5 -6 -4 -37 28 -69 70 -32 42 -70 86 -84
99 -14 13 -22 24 -18 24 5 0 -47 58 -125 138 -12 12 -21 30 -20 40 2 11 0 12
-3 4 -4 -9 -30 10 -78 60 -65 66 -193 186 -256 238 -14 12 -34 29 -45 38 -73
61 -174 138 -265 202 -58 41 -107 77 -110 80 -3 3 -22 14 -42 25 -21 11 -38
23 -38 27 0 5 -4 8 -8 8 -5 0 -51 26 -103 57 -52 31 -147 84 -212 118 -64 34
-114 65 -110 70 5 4 3 5 -3 2 -6 -3 -76 23 -155 58 -79 36 -150 65 -156 65 -7
0 -13 5 -13 10 0 6 -3 9 -7 8 -16 -6 -241 77 -236 86 3 5 1 6 -5 2 -6 -4 -35
0 -64 9 -248 76 -557 140 -769 160 -35 4 -75 9 -89 11 -53 11 -563 27 -572 19z
m2903 -1692 c13 -16 12 -17 -3 -4 -10 7 -18 15 -18 17 0 8 8 3 21 -13z m359
-424 c0 -5 -4 -9 -10 -9 -5 0 -10 7 -10 16 0 8 5 12 10 9 6 -3 10 -10 10 -16z
m-6490 -463 c0 -3 -4 -8 -10 -11 -5 -3 -10 -1 -10 4 0 6 5 11 10 11 6 0 10 -2
10 -4z m1850 -1690 c0 -2 -7 -7 -16 -10 -8 -3 -12 -2 -9 4 6 10 25 14 25 6z
m325 -84 c-3 -3 -11 0 -18 7 -9 10 -8 11 6 5 10 -3 15 -9 12 -12z m86 -59 c13
-16 12 -17 -3 -4 -10 7 -18 15 -18 17 0 8 8 3 21 -13z m184 -193 c3 -6 -1 -7
-9 -4 -18 7 -21 14 -7 14 6 0 13 -4 16 -10z m-2890 -130 c3 -5 1 -10 -4 -10
-6 0 -11 5 -11 10 0 6 2 10 4 10 3 0 8 -4 11 -10z m56 -47 c13 -16 12 -17 -3
-4 -10 7 -18 15 -18 17 0 8 8 3 21 -13z m3007 -118 c-3 -3 -9 2 -12 12 -6 14
-5 15 5 6 7 -7 10 -15 7 -18z m70 -180 c-3 -3 -9 2 -12 12 -6 14 -5 15 5 6 7
-7 10 -15 7 -18z m464 -1187 c-7 -7 -12 -8 -12 -2 0 14 12 26 19 19 2 -3 -1
-11 -7 -17z"/>
<path d="M6751 10723 c7 -12 15 -20 18 -17 3 2 -3 12 -13 22 -17 16 -18 16 -5
-5z"/>
<path d="M6912 10721 c7 -9 13 -18 15 -20 1 -2 1 5 0 16 0 11 -7 20 -14 20
-10 0 -10 -4 -1 -16z"/>
<path d="M6566 10715 c-18 -14 -18 -14 1 -12 11 0 20 7 20 14 0 7 -1 13 -1 13
-1 0 -9 -7 -20 -15z"/>
<path d="M6618 10719 c12 -16 74 -20 88 -7 3 3 -12 5 -33 3 -21 -1 -45 2 -53
9 -13 9 -13 9 -2 -5z"/>
<path d="M6850 10727 c0 -2 6 -10 14 -16 11 -9 16 -9 22 1 4 7 4 10 -1 6 -4
-4 -14 -3 -22 3 -7 6 -13 9 -13 6z"/>
<path d="M6439 10708 c-5 -18 -6 -38 -1 -34 7 8 12 36 6 36 -2 0 -4 -1 -5 -2z"/>
<path d="M6469 10693 c-13 -16 -12 -17 4 -4 16 13 21 21 13 21 -2 0 -10 -8
-17 -17z"/>
<path d="M6390 10686 c7 -7 13 -7 20 0 6 6 3 10 -10 10 -13 0 -16 -4 -10 -10z"/>
<path d="M6875 10679 c-4 -6 -5 -12 -2 -15 2 -3 7 2 10 11 7 17 1 20 -8 4z"/>
<path d="M6325 10672 c4 -4 12 -7 18 -7 7 -1 11 -7 9 -14 -1 -7 2 -9 9 -6 13
9 -3 28 -27 31 -9 1 -13 -1 -9 -4z"/>
<path d="M6587 10669 c7 -7 15 -10 18 -7 3 3 -2 9 -12 12 -14 6 -15 5 -6 -5z"/>
<path d="M6146 10651 c-4 -5 3 -7 14 -4 23 6 26 13 6 13 -8 0 -17 -4 -20 -9z"/>
<path d="M6227 10649 c7 -9 10 -19 6 -22 -3 -4 -1 -7 5 -7 17 0 15 16 -5 31
-16 12 -17 12 -6 -2z"/>
<path d="M6313 10653 c4 -3 1 -13 -6 -22 -11 -14 -10 -14 5 -2 16 12 16 31 1
31 -4 0 -3 -3 0 -7z"/>
<path d="M6535 10650 c3 -5 8 -10 11 -10 2 0 4 5 4 10 0 6 -5 10 -11 10 -5 0
-7 -4 -4 -10z"/>
<path d="M6813 10645 c0 -8 4 -12 9 -9 5 3 6 10 3 15 -9 13 -12 11 -12 -6z"/>
<path d="M6915 10650 c-3 -5 -1 -10 4 -10 6 0 11 5 11 10 0 6 -2 10 -4 10 -3
0 -8 -4 -11 -10z"/>
<path d="M6079 10648 c-5 -18 -6 -38 -1 -34 7 8 12 36 6 36 -2 0 -4 -1 -5 -2z"/>
<path d="M6266 10628 c3 -5 10 -6 15 -3 13 9 11 12 -6 12 -8 0 -12 -4 -9 -9z"/>
<path d="M6030 10606 c7 -7 13 -7 20 0 6 6 3 10 -10 10 -13 0 -16 -4 -10 -10z"/>
<path d="M6110 10608 c0 -4 4 -8 9 -8 6 0 12 4 15 8 3 5 -1 9 -9 9 -8 0 -15
-4 -15 -9z"/>
<path d="M5917 10600 c7 -8 20 -15 29 -16 9 -1 13 1 9 4 -4 4 -10 7 -13 7 -4
0 -14 4 -22 9 -12 7 -13 6 -3 -4z"/>
<path d="M5974 10585 c0 -13 3 -22 7 -19 8 4 6 30 -2 38 -3 3 -5 -5 -5 -19z"/>
<path d="M5840 10564 c-11 -12 -11 -18 2 -30 12 -12 17 -13 23 -3 5 7 4 10 -3
5 -16 -10 -25 13 -12 29 7 8 10 15 7 15 -2 0 -10 -7 -17 -16z"/>
<path d="M6050 10569 c0 -5 5 -7 10 -4 6 3 10 8 10 11 0 2 -4 4 -10 4 -5 0
-10 -5 -10 -11z"/>
<path d="M6090 10569 c0 -5 5 -7 10 -4 6 3 10 8 10 11 0 2 -4 4 -10 4 -5 0
-10 -5 -10 -11z"/>
<path d="M5720 10556 c0 -2 7 -9 15 -16 13 -11 14 -10 9 4 -5 14 -24 23 -24
12z"/>
<path d="M5776 10552 c-3 -5 1 -9 9 -9 8 0 12 4 9 9 -3 4 -7 8 -9 8 -2 0 -6
-4 -9 -8z"/>
<path d="M5870 10556 c0 -2 7 -7 16 -10 8 -3 12 -2 9 4 -6 10 -25 14 -25 6z"/>
<path d="M6035 10540 c-4 -6 -11 -7 -17 -4 -7 4 -8 2 -4 -5 6 -9 11 -9 22 0
14 11 18 19 10 19 -3 0 -8 -5 -11 -10z"/>
<path d="M5956 10528 c3 -4 11 -5 19 -1 21 7 19 12 -4 10 -11 0 -18 -5 -15 -9z"/>
<path d="M5620 10495 c0 -2 6 -8 13 -14 10 -8 14 -7 14 2 0 8 -6 14 -14 14 -7
0 -13 -1 -13 -2z"/>
<path d="M5666 10488 c3 -5 10 -6 15 -3 13 9 11 12 -6 12 -8 0 -12 -4 -9 -9z"/>
<path d="M5540 10470 c-9 -6 -10 -10 -3 -10 6 0 15 5 18 10 8 12 4 12 -15 0z"/>
<path d="M5795 10470 c3 -5 8 -10 11 -10 2 0 4 5 4 10 0 6 -5 10 -11 10 -5 0
-7 -4 -4 -10z"/>
<path d="M5435 10431 c3 -2 -1 -11 -7 -20 -11 -14 -10 -14 7 0 11 9 30 15 43
14 13 -1 25 1 27 5 2 3 -14 6 -35 6 -22 0 -37 -2 -35 -5z"/>
<path d="M5395 10400 c-4 -6 -10 -8 -14 -6 -4 3 -8 -1 -8 -9 0 -10 4 -12 12
-5 7 5 14 8 17 5 2 -3 5 2 5 10 0 18 -3 19 -12 5z"/>
<path d="M5320 10390 c-12 -7 -10 -9 7 -7 12 0 19 5 17 9 -6 10 -6 10 -24 -2z"/>
<path d="M5255 10369 c-4 -5 2 -6 12 -2 16 6 16 4 -2 -18 -11 -13 -13 -18 -4
-11 9 6 19 10 22 7 4 -3 5 -2 2 2 -3 3 -1 11 5 17 6 8 3 12 -10 13 -11 1 -22
-2 -25 -8z"/>
<path d="M5470 10366 c0 -2 8 -10 18 -17 15 -13 16 -12 3 4 -13 16 -21 21 -21
13z"/>
<path d="M5406 10348 c3 -5 10 -6 15 -3 13 9 11 12 -6 12 -8 0 -12 -4 -9 -9z"/>
<path d="M5109 10267 c6 -8 7 -18 3 -22 -4 -5 -1 -5 6 -1 10 6 10 11 1 22 -6
8 -14 14 -16 14 -3 0 0 -6 6 -13z"/>
<path d="M5255 10251 c-3 -5 -2 -12 3 -15 5 -3 9 1 9 9 0 17 -3 19 -12 6z"/>
<path d="M5053 10237 c0 -8 6 -14 14 -14 9 0 10 4 2 14 -6 7 -12 13 -14 13 -1
0 -2 -6 -2 -13z"/>
<path d="M5160 10230 c-9 -6 -10 -10 -3 -10 6 0 15 5 18 10 8 12 4 12 -15 0z"/>
<path d="M4989 10208 c7 -9 9 -23 5 -30 -6 -10 -4 -11 7 0 11 10 10 15 -6 30
-17 15 -18 15 -6 0z"/>
<path d="M4930 10192 c0 -5 7 -9 15 -9 8 0 12 4 9 9 -3 4 -9 8 -15 8 -5 0 -9
-4 -9 -8z"/>
<path d="M5136 10192 c-3 -5 1 -9 9 -9 8 0 12 4 9 9 -3 4 -7 8 -9 8 -2 0 -6
-4 -9 -8z"/>
<path d="M4890 10173 c0 -6 7 -16 15 -23 8 -7 12 -17 8 -23 -4 -6 -1 -7 6 -3
9 6 8 13 -6 29 -10 12 -19 24 -20 26 -2 2 -3 0 -3 -6z"/>
<path d="M5033 10165 c0 -8 4 -12 9 -9 5 3 6 10 3 15 -9 13 -12 11 -12 -6z"/>
<path d="M4986 10148 c3 -5 10 -6 15 -3 13 9 11 12 -6 12 -8 0 -12 -4 -9 -9z"/>
<path d="M4870 10146 c0 -2 8 -10 18 -17 15 -13 16 -12 3 4 -13 16 -21 21 -21
13z"/>
<path d="M4850 10126 c0 -2 8 -10 18 -17 15 -13 16 -12 3 4 -13 16 -21 21 -21
13z"/>
<path d="M4800 10110 c-9 -6 -10 -10 -3 -10 6 0 15 5 18 10 8 12 4 12 -15 0z"/>
<path d="M4766 10075 c-18 -14 -18 -14 1 -12 11 0 20 7 20 14 0 7 -1 13 -1 13
-1 0 -9 -7 -20 -15z"/>
<path d="M4846 10072 c-3 -5 1 -9 9 -9 8 0 12 4 9 9 -3 4 -7 8 -9 8 -2 0 -6
-4 -9 -8z"/>
<path d="M4719 10028 c-5 -18 -6 -38 -1 -34 7 8 12 36 6 36 -2 0 -4 -1 -5 -2z"/>
<path d="M4631 9997 c2 -1 13 -9 24 -17 19 -14 19 -14 6 3 -7 9 -18 17 -24 17
-6 0 -8 -1 -6 -3z"/>
<path d="M4634 9963 c16 -20 36 -23 36 -6 0 4 -3 3 -7 0 -3 -4 -16 1 -27 10
-21 18 -21 18 -2 -4z"/>
<path d="M4755 9969 c-3 -4 2 -6 10 -5 21 3 28 13 10 13 -9 0 -18 -4 -20 -8z"/>
<path d="M4530 9908 c0 -6 3 -8 7 -5 3 4 11 2 18 -3 8 -7 12 -6 12 3 0 7 -9
14 -19 14 -10 1 -18 -3 -18 -9z"/>
<path d="M4444 9828 c-12 -14 -13 -18 -3 -10 9 6 18 10 21 7 2 -3 5 2 5 10 0
19 0 19 -23 -7z"/>
<path d="M4503 9832 c10 -10 14 -22 10 -27 -5 -4 -2 -5 5 -1 11 6 10 12 -4 27
-9 10 -19 19 -22 19 -3 0 2 -8 11 -18z"/>
<path d="M4605 9830 c-3 -6 1 -7 9 -4 18 7 21 14 7 14 -6 0 -13 -4 -16 -10z"/>
<path d="M4403 9805 c-3 -9 -3 -18 -1 -21 3 -3 8 4 11 16 6 23 -1 27 -10 5z"/>
<path d="M4376 9783 c-6 -14 -5 -15 5 -6 7 7 10 15 7 18 -3 3 -9 -2 -12 -12z"/>
<path d="M4536 9792 c-3 -5 1 -9 9 -9 8 0 12 4 9 9 -3 4 -7 8 -9 8 -2 0 -6 -4
-9 -8z"/>
<path d="M4353 9742 c-8 -14 -8 -19 1 -19 7 0 13 9 13 19 1 10 1 18 0 18 -1 0
-7 -8 -14 -18z"/>
<path d="M4460 9756 c0 -2 8 -10 18 -17 15 -13 16 -12 3 4 -13 16 -21 21 -21
13z"/>
<path d="M4290 9711 c0 -6 4 -13 10 -16 6 -3 7 1 4 9 -7 18 -14 21 -14 7z"/>
<path d="M4276 9663 c-6 -14 -5 -15 5 -6 7 7 10 15 7 18 -3 3 -9 -2 -12 -12z"/>
<path d="M4330 9649 c0 -5 5 -7 10 -4 6 3 10 8 10 11 0 2 -4 4 -10 4 -5 0 -10
-5 -10 -11z"/>
<path d="M4212 9643 c-7 -2 -17 -14 -23 -26 -9 -20 -9 -20 4 -5 9 11 17 14 23
8 6 -6 10 -2 10 10 0 11 0 20 -1 19 0 0 -6 -3 -13 -6z"/>
<path d="M4290 9609 c0 -5 5 -7 10 -4 6 3 10 8 10 11 0 2 -4 4 -10 4 -5 0 -10
-5 -10 -11z"/>
<path d="M4195 9589 c-3 -4 2 -6 10 -5 21 3 28 13 10 13 -9 0 -18 -4 -20 -8z"/>
<path d="M4170 9566 c0 -2 8 -10 18 -17 15 -13 16 -12 3 4 -13 16 -21 21 -21
13z"/>
<path d="M4156 9523 c-6 -14 -5 -15 5 -6 7 7 10 15 7 18 -3 3 -9 -2 -12 -12z"/>
<path d="M4189 9513 c-13 -16 -12 -17 4 -4 16 13 21 21 13 21 -2 0 -10 -8 -17
-17z"/>
<path d="M4096 9504 c-6 -15 -4 -15 11 -3 10 7 20 15 22 16 2 2 -3 3 -11 3 -9
0 -19 -7 -22 -16z"/>
<path d="M4146 9488 c3 -5 10 -6 15 -3 13 9 11 12 -6 12 -8 0 -12 -4 -9 -9z"/>
<path d="M4073 9456 l-18 -21 24 20 c13 11 25 19 28 17 3 -2 7 -2 9 1 2 2 -3
4 -11 4 -8 0 -23 -10 -32 -21z"/>
<path d="M4176 9452 c-2 -4 -1 -14 4 -22 7 -11 9 -9 7 8 -1 24 -3 26 -11 14z"/>
<path d="M3986 9390 c6 -8 10 -23 8 -33 -1 -11 0 -16 4 -13 12 13 10 36 -6 48
-15 11 -15 11 -6 -2z"/>
<path d="M4055 9331 c-3 -5 -2 -12 3 -15 5 -3 9 1 9 9 0 17 -3 19 -12 6z"/>
<path d="M4006 9292 c-3 -5 1 -9 9 -9 8 0 12 4 9 9 -3 4 -7 8 -9 8 -2 0 -6 -4
-9 -8z"/>
<path d="M3943 9272 c10 -10 14 -22 10 -27 -5 -4 -2 -5 5 -1 11 6 10 12 -4 27
-9 10 -19 19 -22 19 -3 0 2 -8 11 -18z"/>
<path d="M3880 9275 c0 -2 6 -8 13 -14 10 -8 14 -7 14 2 0 8 -6 14 -14 14 -7
0 -13 -1 -13 -2z"/>
<path d="M6960 9230 c-9 -6 -10 -10 -3 -10 6 0 15 5 18 10 8 12 4 12 -15 0z"/>
<path d="M3910 9210 c0 -5 5 -10 11 -10 5 0 7 5 4 10 -3 6 -8 10 -11 10 -2 0
-4 -4 -4 -10z"/>
<path d="M3824 9180 c0 -9 6 -17 13 -17 7 0 9 5 6 10 -3 5 1 13 8 18 10 6 8 8
-6 7 -12 -1 -21 -9 -21 -18z"/>
<path d="M3893 9133 c4 -3 1 -13 -6 -22 -11 -14 -10 -14 5 -2 16 12 16 31 1
31 -4 0 -3 -3 0 -7z"/>
<path d="M3814 9110 c0 -13 4 -16 10 -10 7 7 7 13 0 20 -6 6 -10 3 -10 -10z"/>
<path d="M3845 9090 c-3 -6 1 -7 9 -4 18 7 21 14 7 14 -6 0 -13 -4 -16 -10z"/>
<path d="M3719 9043 c-13 -16 -12 -17 4 -4 16 13 21 21 13 21 -2 0 -10 -8 -17
-17z"/>
<path d="M3790 9049 c0 -5 5 -7 10 -4 6 3 10 8 10 11 0 2 -4 4 -10 4 -5 0 -10
-5 -10 -11z"/>
<path d="M3700 9016 c0 -2 8 -10 18 -17 15 -13 16 -12 3 4 -13 16 -21 21 -21
13z"/>
<path d="M3675 8971 c-3 -5 -2 -12 3 -15 5 -3 9 1 9 9 0 17 -3 19 -12 6z"/>
<path d="M3750 8975 c0 -7 30 -13 34 -7 3 4 -4 9 -15 9 -10 1 -19 0 -19 -2z"/>
<path d="M3655 8920 c-4 -6 -11 -7 -17 -4 -7 4 -8 2 -4 -5 6 -9 11 -9 22 0 14
11 18 19 10 19 -3 0 -8 -5 -11 -10z"/>
<path d="M3696 8908 c3 -5 10 -6 15 -3 13 9 11 12 -6 12 -8 0 -12 -4 -9 -9z"/>
<path d="M9116 8888 c3 -5 10 -6 15 -3 13 9 11 12 -6 12 -8 0 -12 -4 -9 -9z"/>
<path d="M9102 8874 c10 -10 20 -16 22 -13 3 3 -5 11 -17 18 -21 13 -21 12 -5
-5z"/>
<path d="M9365 8870 c10 -11 20 -20 23 -20 3 0 -3 9 -13 20 -10 11 -20 20 -23
20 -3 0 3 -9 13 -20z"/>
<path d="M9060 8870 c-9 -6 -10 -10 -3 -10 6 0 15 5 18 10 8 12 4 12 -15 0z"/>
<path d="M9176 8863 c-6 -14 -5 -15 5 -6 7 7 10 15 7 18 -3 3 -9 -2 -12 -12z"/>
<path d="M8993 8857 c0 -8 6 -14 14 -14 9 0 10 4 2 14 -6 7 -12 13 -14 13 -1
0 -2 -6 -2 -13z"/>
<path d="M3600 8845 c-7 -9 -11 -17 -9 -20 3 -2 10 5 17 15 14 24 10 26 -8 5z"/>
<path d="M8950 8856 c0 -2 7 -7 16 -10 8 -3 12 -2 9 4 -6 10 -25 14 -25 6z"/>
<path d="M8939 8823 c-12 -16 -12 -17 2 -6 9 7 20 9 24 5 5 -4 5 -1 1 6 -9 16
-11 15 -27 -5z"/>
<path d="M9039 8823 c-13 -16 -12 -17 4 -4 9 7 17 15 17 17 0 8 -8 3 -21 -13z"/>
<path d="M9070 8831 c0 -6 4 -13 10 -16 6 -3 7 1 4 9 -7 18 -14 21 -14 7z"/>
<path d="M9175 8809 c-3 -4 2 -6 10 -5 21 3 28 13 10 13 -9 0 -18 -4 -20 -8z"/>
<path d="M8889 8793 c-13 -16 -12 -17 4 -4 9 7 17 15 17 17 0 8 -8 3 -21 -13z"/>
<path d="M3600 8790 c-9 -6 -10 -10 -3 -10 6 0 15 5 18 10 8 12 4 12 -15 0z"/>
<path d="M8970 8789 c0 -5 5 -7 10 -4 6 3 10 8 10 11 0 2 -4 4 -10 4 -5 0 -10
-5 -10 -11z"/>
<path d="M9070 8790 c0 -5 5 -10 11 -10 5 0 7 5 4 10 -3 6 -8 10 -11 10 -2 0
-4 -4 -4 -10z"/>
<path d="M3556 8777 c3 -10 9 -15 12 -12 3 3 0 11 -7 18 -10 9 -11 8 -5 -6z"/>
<path d="M3633 8775 c0 -8 4 -12 9 -9 5 3 6 10 3 15 -9 13 -12 11 -12 -6z"/>
<path d="M8851 8757 c-8 -10 -7 -14 2 -14 8 0 14 6 14 14 0 7 -1 13 -2 13 -2
0 -8 -6 -14 -13z"/>
<path d="M3750 8756 c0 -2 7 -7 16 -10 8 -3 12 -2 9 4 -6 10 -25 14 -25 6z"/>
<path d="M9575 8741 c-3 -5 -2 -12 3 -15 5 -3 9 1 9 9 0 17 -3 19 -12 6z"/>
<path d="M3590 8731 c0 -6 4 -13 10 -16 6 -3 7 1 4 9 -7 18 -14 21 -14 7z"/>
<path d="M8769 8713 c-13 -16 -12 -17 4 -4 9 7 17 15 17 17 0 8 -8 3 -21 -13z"/>
<path d="M9615 8721 c-3 -5 -2 -12 3 -15 5 -3 9 1 9 9 0 17 -3 19 -12 6z"/>
<path d="M8716 8703 c-6 -14 -5 -15 5 -6 7 7 10 15 7 18 -3 3 -9 -2 -12 -12z"/>
<path d="M8827 8709 c7 -7 15 -10 18 -7 3 3 -2 9 -12 12 -14 6 -15 5 -6 -5z"/>
<path d="M8867 8709 c7 -7 15 -10 18 -7 3 3 -2 9 -12 12 -14 6 -15 5 -6 -5z"/>
<path d="M9636 8677 c3 -10 9 -15 12 -12 3 3 0 11 -7 18 -10 9 -11 8 -5 -6z"/>
<path d="M8696 8663 c-6 -14 -5 -15 5 -6 7 7 10 15 7 18 -3 3 -9 -2 -12 -12z"/>
<path d="M3480 8645 c-7 -9 -11 -17 -9 -20 3 -2 10 5 17 15 14 24 10 26 -8 5z"/>
<path d="M3570 8650 c0 -5 5 -10 11 -10 5 0 7 5 4 10 -3 6 -8 10 -11 10 -2 0
-4 -4 -4 -10z"/>
<path d="M8639 8643 c-13 -16 -12 -17 4 -4 9 7 17 15 17 17 0 8 -8 3 -21 -13z"/>
<path d="M3499 8623 c-12 -16 -12 -17 2 -6 9 7 20 9 24 5 5 -4 5 -1 1 6 -9 16
-11 15 -27 -5z"/>
<path d="M8676 8628 c3 -5 10 -6 15 -3 13 9 11 12 -6 12 -8 0 -12 -4 -9 -9z"/>
<path d="M8715 8630 c-3 -5 -1 -10 4 -10 6 0 11 5 11 10 0 6 -2 10 -4 10 -3 0
-8 -4 -11 -10z"/>
<path d="M8750 8629 c0 -5 5 -7 10 -4 6 3 10 8 10 11 0 2 -4 4 -10 4 -5 0 -10
-5 -10 -11z"/>
<path d="M9790 8636 c0 -2 7 -7 16 -10 8 -3 12 -2 9 4 -6 10 -25 14 -25 6z"/>
<path d="M9834 8624 c1 -7 6 -17 10 -21 4 -4 6 -1 4 7 -2 9 3 14 12 12 8 -2
11 0 7 4 -13 14 -35 12 -33 -2z"/>
<path d="M9905 8610 c-3 -6 1 -7 9 -4 18 7 21 14 7 14 -6 0 -13 -4 -16 -10z"/>
<path d="M8596 8583 c-6 -14 -5 -15 5 -6 7 7 10 15 7 18 -3 3 -9 -2 -12 -12z"/>
<path d="M8710 8590 c0 -5 5 -10 11 -10 5 0 7 5 4 10 -3 6 -8 10 -11 10 -2 0
-4 -4 -4 -10z"/>
<path d="M9700 8590 c-9 -6 -10 -10 -3 -10 6 0 15 5 18 10 8 12 4 12 -15 0z"/>
<path d="M10074 8579 c-3 -6 -2 -15 3 -20 5 -5 9 -1 9 11 0 23 -2 24 -12 9z"/>
<path d="M8633 8565 c0 -8 4 -12 9 -9 5 3 6 10 3 15 -9 13 -12 11 -12 -6z"/>
<path d="M9895 8570 c-3 -5 -1 -10 4 -10 6 0 11 5 11 10 0 6 -2 10 -4 10 -3 0
-8 -4 -11 -10z"/>
<path d="M3476 8557 c3 -10 9 -15 12 -12 3 3 0 11 -7 18 -10 9 -11 8 -5 -6z"/>
<path d="M10136 8557 c3 -10 9 -15 12 -12 3 3 0 11 -7 18 -10 9 -11 8 -5 -6z"/>
<path d="M10353 8555 c0 -8 4 -15 9 -15 4 0 8 4 8 9 0 6 -4 12 -8 15 -5 3 -9
-1 -9 -9z"/>
<path d="M3510 8549 c0 -5 5 -7 10 -4 6 3 10 8 10 11 0 2 -4 4 -10 4 -5 0 -10
-5 -10 -11z"/>
<path d="M8459 8543 c-13 -17 -13 -17 6 -3 11 8 22 16 24 17 2 2 0 3 -6 3 -6
0 -17 -8 -24 -17z"/>
<path d="M8585 8550 c-3 -6 1 -7 9 -4 18 7 21 14 7 14 -6 0 -13 -4 -16 -10z"/>
<path d="M8515 8541 c-3 -5 -2 -12 3 -15 5 -3 9 1 9 9 0 17 -3 19 -12 6z"/>
<path d="M10280 8530 c-9 -6 -10 -10 -3 -10 6 0 15 5 18 10 8 12 4 12 -15 0z"/>
<path d="M10316 8531 c-3 -5 2 -15 12 -22 15 -12 16 -12 5 2 -7 9 -10 19 -6
22 3 4 4 7 0 7 -3 0 -8 -4 -11 -9z"/>
<path d="M8414 8519 c-3 -6 -2 -15 3 -20 5 -5 9 -1 9 11 0 23 -2 24 -12 9z"/>
<path d="M3476 8503 c-6 -14 -5 -15 5 -6 7 7 10 15 7 18 -3 3 -9 -2 -12 -12z"/>
<path d="M8453 8503 c0 -9 4 -10 14 -2 7 6 13 12 13 14 0 1 -6 2 -13 2 -8 0
-14 -6 -14 -14z"/>
<path d="M8665 8510 c-3 -6 1 -7 9 -4 18 7 21 14 7 14 -6 0 -13 -4 -16 -10z"/>
<path d="M10039 8503 c-13 -16 -12 -17 4 -4 9 7 17 15 17 17 0 8 -8 3 -21 -13z"/>
<path d="M10295 8501 c-3 -5 -2 -12 3 -15 5 -3 9 1 9 9 0 17 -3 19 -12 6z"/>
<path d="M8393 8475 c0 -8 4 -12 9 -9 5 3 6 10 3 15 -9 13 -12 11 -12 -6z"/>
<path d="M8336 8472 c-3 -4 4 -9 15 -9 23 -2 25 3 4 10 -8 4 -16 3 -19 -1z"/>
<path d="M3427 8449 c7 -7 15 -10 18 -7 3 3 -2 9 -12 12 -14 6 -15 5 -6 -5z"/>
<path d="M8271 8434 c0 -11 3 -14 6 -6 3 7 2 16 -1 19 -3 4 -6 -2 -5 -13z"/>
<path d="M8336 8437 c3 -10 9 -15 12 -12 3 3 0 11 -7 18 -10 9 -11 8 -5 -6z"/>
<path d="M3380 8432 c0 -5 7 -9 15 -9 8 0 12 4 9 9 -3 4 -9 8 -15 8 -5 0 -9
-4 -9 -8z"/>
<path d="M7650 8430 c0 -5 5 -10 11 -10 5 0 7 5 4 10 -3 6 -8 10 -11 10 -2 0
-4 -4 -4 -10z"/>
<path d="M8204 8432 c4 -3 14 -7 22 -8 9 -1 13 0 10 4 -4 3 -14 7 -22 8 -9 1
-13 0 -10 -4z"/>
<path d="M8370 8429 c0 -5 5 -7 10 -4 6 3 10 8 10 11 0 2 -4 4 -10 4 -5 0 -10
-5 -10 -11z"/>
<path d="M8467 8429 c7 -7 15 -10 18 -7 3 3 -2 9 -12 12 -14 6 -15 5 -6 -5z"/>
<path d="M7690 8409 c0 -5 5 -7 10 -4 6 3 10 8 10 11 0 2 -4 4 -10 4 -5 0 -10
-5 -10 -11z"/>
<path d="M8115 8400 c-4 -6 -10 -8 -14 -6 -4 3 -8 -1 -8 -9 0 -10 4 -12 12 -5
7 5 14 8 17 5 2 -3 5 2 5 10 0 18 -3 19 -12 5z"/>
<path d="M7827 8389 c7 -7 15 -10 18 -7 3 3 -2 9 -12 12 -14 6 -15 5 -6 -5z"/>
<path d="M7860 8396 c0 -2 8 -10 18 -17 15 -13 16 -12 3 4 -13 16 -21 21 -21
13z"/>
<path d="M7926 8392 c-3 -5 1 -9 9 -9 8 0 12 4 9 9 -3 4 -7 8 -9 8 -2 0 -6 -4
-9 -8z"/>
<path d="M7993 8385 c0 -8 4 -12 9 -9 5 3 6 10 3 15 -9 13 -12 11 -12 -6z"/>
<path d="M8046 8392 c-3 -5 1 -9 9 -9 8 0 12 4 9 9 -3 4 -7 8 -9 8 -2 0 -6 -4
-9 -8z"/>
<path d="M8513 8385 c0 -8 4 -12 9 -9 5 3 6 10 3 15 -9 13 -12 11 -12 -6z"/>
<path d="M3387 8369 c7 -7 15 -10 18 -7 3 3 -2 9 -12 12 -14 6 -15 5 -6 -5z"/>
<path d="M8276 8368 c3 -4 11 -5 19 -1 21 7 19 12 -4 10 -11 0 -18 -5 -15 -9z"/>
<path d="M7946 8352 c-3 -5 1 -9 9 -9 8 0 12 4 9 9 -3 4 -7 8 -9 8 -2 0 -6 -4
-9 -8z"/>
<path d="M8133 8340 c1 -21 10 -18 13 5 1 8 -2 15 -6 15 -5 0 -8 -9 -7 -20z"/>
<path d="M8360 8355 c0 -2 6 -8 13 -14 10 -8 14 -7 14 2 0 8 -6 14 -14 14 -7
0 -13 -1 -13 -2z"/>
<path d="M3356 8308 c3 -5 10 -6 15 -3 13 9 11 12 -6 12 -8 0 -12 -4 -9 -9z"/>
<path d="M7756 8297 c3 -10 9 -15 12 -12 3 3 0 11 -7 18 -10 9 -11 8 -5 -6z"/>
<path d="M3346 8290 c5 -8 9 -18 9 -22 0 -3 3 -9 7 -13 3 -4 5 0 4 9 -1 9 -8
22 -16 29 -10 10 -11 9 -4 -3z"/>
<path d="M3386 8272 c-3 -5 1 -9 9 -9 8 0 15 4 15 9 0 4 -4 8 -9 8 -6 0 -12
-4 -15 -8z"/>
<path d="M3313 8185 c0 -8 4 -12 9 -9 5 3 6 10 3 15 -9 13 -12 11 -12 -6z"/>
<path d="M3315 8150 c-3 -5 -1 -10 4 -10 6 0 11 5 11 10 0 6 -2 10 -4 10 -3 0
-8 -4 -11 -10z"/>
<path d="M3330 8110 c0 -5 5 -10 11 -10 5 0 7 5 4 10 -3 6 -8 10 -11 10 -2 0
-4 -4 -4 -10z"/>
<path d="M3295 8050 c3 -5 8 -10 11 -10 2 0 4 5 4 10 0 6 -5 10 -11 10 -5 0
-7 -4 -4 -10z"/>
<path d="M3219 7978 c-5 -16 -4 -46 2 -42 4 2 7 13 6 24 -1 17 -5 26 -8 18z"/>
<path d="M11190 7971 c0 -6 4 -13 10 -16 6 -3 7 1 4 9 -7 18 -14 21 -14 7z"/>
<path d="M11194 7916 c1 -8 5 -18 8 -22 4 -3 5 1 4 10 -1 8 -5 18 -8 22 -4 3
-5 -1 -4 -10z"/>
<path d="M3226 7908 c3 -5 10 -6 15 -3 13 9 11 12 -6 12 -8 0 -12 -4 -9 -9z"/>
<path d="M3246 7788 c3 -5 10 -6 15 -3 13 9 11 12 -6 12 -8 0 -12 -4 -9 -9z"/>
<path d="M3150 7671 c0 -6 4 -13 10 -16 6 -3 7 1 4 9 -7 18 -14 21 -14 7z"/>
<path d="M3159 7623 c-13 -16 -12 -17 4 -4 16 13 21 21 13 21 -2 0 -10 -8 -17
-17z"/>
<path d="M3166 7568 c3 -5 10 -6 15 -3 13 9 11 12 -6 12 -8 0 -12 -4 -9 -9z"/>
<path d="M3116 7508 c3 -5 10 -6 15 -3 13 9 11 12 -6 12 -8 0 -12 -4 -9 -9z"/>
<path d="M11270 7511 c0 -6 4 -13 10 -16 6 -3 7 1 4 9 -7 18 -14 21 -14 7z"/>
<path d="M11286 7368 c3 -5 10 -6 15 -3 13 9 11 12 -6 12 -8 0 -12 -4 -9 -9z"/>
<path d="M3153 7335 c0 -8 4 -12 9 -9 5 3 6 10 3 15 -9 13 -12 11 -12 -6z"/>
<path d="M11290 7329 c0 -5 5 -7 10 -4 6 3 10 8 10 11 0 2 -4 4 -10 4 -5 0
-10 -5 -10 -11z"/>
<path d="M11273 7145 c0 -8 4 -12 9 -9 5 3 6 10 3 15 -9 13 -12 11 -12 -6z"/>
<path d="M11306 7112 c-3 -5 1 -9 9 -9 8 0 12 4 9 9 -3 4 -7 8 -9 8 -2 0 -6
-4 -9 -8z"/>
<path d="M11259 7063 c-13 -16 -12 -17 4 -4 16 13 21 21 13 21 -2 0 -10 -8
-17 -17z"/>
<path d="M11301 7066 c-9 -11 -9 -16 1 -22 7 -4 10 -4 6 1 -4 4 -3 14 3 22 6
7 9 13 6 13 -2 0 -10 -6 -16 -14z"/>
<path d="M11257 7025 c-4 -8 -3 -16 1 -19 4 -3 9 4 9 15 2 23 -3 25 -10 4z"/>
<path d="M11153 6983 c0 -6 5 -9 11 -5 6 4 14 7 18 7 19 0 14 11 -6 11 -12 0
-23 -6 -23 -13z"/>
<path d="M10955 6950 c3 -5 8 -10 11 -10 2 0 4 5 4 10 0 6 -5 10 -11 10 -5 0
-7 -4 -4 -10z"/>
<path d="M11166 6948 c3 -5 10 -6 15 -3 13 9 11 12 -6 12 -8 0 -12 -4 -9 -9z"/>
<path d="M10996 6928 c3 -4 11 -5 19 -1 21 7 19 12 -4 10 -11 0 -18 -5 -15 -9z"/>
<path d="M11130 6929 c0 -5 5 -7 10 -4 6 3 10 8 10 11 0 2 -4 4 -10 4 -5 0
-10 -5 -10 -11z"/>
<path d="M11110 6876 c0 -2 7 -7 16 -10 8 -3 12 -2 9 4 -6 10 -25 14 -25 6z"/>
<path d="M9367 6834 c-1 -1 -40 -5 -87 -9 -273 -22 -583 -129 -820 -282 -173
-112 -349 -273 -464 -422 -50 -65 -146 -207 -146 -215 0 -4 -10 -23 -23 -44
-78 -125 -178 -421 -201 -592 -3 -25 -9 -67 -12 -95 -4 -27 -6 -115 -5 -195 3
-219 5 -249 15 -243 5 3 7 -8 4 -26 -2 -17 -1 -31 4 -31 4 0 7 -3 6 -7 -1 -8
6 -41 23 -107 6 -22 12 -46 14 -55 2 -9 8 -29 14 -44 6 -16 9 -33 5 -38 -3 -5
0 -9 5 -9 6 0 11 -9 11 -19 0 -11 4 -22 9 -26 5 -3 13 -20 16 -37 4 -18 26
-73 49 -122 23 -50 49 -106 57 -123 7 -18 17 -33 21 -33 5 0 8 -9 8 -19 0 -11
4 -21 9 -23 5 -1 11 -10 13 -18 2 -8 5 -17 8 -20 3 -3 32 -48 64 -100 33 -52
68 -106 78 -119 10 -13 15 -28 11 -35 -3 -6 -3 -8 2 -4 8 8 35 -15 35 -31 0
-5 7 -17 16 -25 37 -38 93 -120 87 -130 -3 -6 -3 -8 2 -4 8 8 27 -10 74 -71
14 -19 36 -45 49 -58 13 -13 20 -28 16 -35 -4 -6 -3 -8 3 -5 13 8 46 -27 36
-38 -5 -4 -3 -5 3 -2 6 3 28 -15 50 -40 21 -25 51 -57 66 -71 15 -14 25 -30
21 -36 -3 -6 -3 -8 1 -4 9 8 72 -50 69 -63 -2 -5 0 -8 5 -7 11 4 52 -35 46
-44 -3 -5 -1 -7 3 -6 13 4 73 -54 67 -64 -3 -5 -2 -7 3 -6 12 4 73 -44 67 -54
-3 -4 2 -8 10 -8 9 0 16 -4 16 -8 0 -5 11 -15 25 -22 13 -7 27 -22 31 -32 3
-10 9 -16 13 -13 12 7 53 -40 44 -50 -5 -4 -3 -5 4 -1 12 7 40 -13 95 -66 15
-14 28 -23 28 -20 0 4 6 0 13 -8 18 -22 175 -140 187 -140 6 0 10 -5 10 -11 0
-5 5 -7 10 -4 9 6 14 -8 11 -28 -1 -5 3 -6 9 -2 6 3 8 10 5 14 -2 5 20 0 49
-9 29 -10 82 -18 117 -18 38 1 64 -4 64 -10 0 -6 3 -14 7 -18 4 -3 6 3 3 14
-4 22 20 38 31 20 4 -5 9 -6 13 -2 3 5 22 17 42 26 28 13 39 14 48 5 9 -9 11
-8 6 6 -4 10 -2 17 5 17 6 0 17 6 24 13 7 6 25 21 40 32 15 11 41 32 58 48 18
15 35 27 40 27 11 0 6 -23 -7 -32 -6 -5 -5 -8 3 -8 7 0 11 -4 8 -8 -3 -5 1 -9
9 -9 8 0 11 5 7 11 -9 16 -12 66 -3 66 5 0 21 12 36 26 25 23 31 25 49 14 19
-12 20 -12 6 4 -13 16 -12 20 5 32 15 11 22 11 34 1 14 -10 14 -10 3 4 -11 14
-7 21 25 48 21 18 48 41 60 52 12 11 31 21 42 22 11 0 17 5 15 9 -3 5 -11 6
-17 2 -7 -3 1 4 16 16 15 12 48 44 74 71 25 27 49 46 54 44 4 -3 11 4 14 16 4
12 12 18 21 15 7 -3 13 -2 13 2 -3 19 2 33 10 27 5 -3 12 4 16 15 3 11 11 20
16 20 6 0 7 -5 3 -12 -4 -7 -3 -8 5 -4 6 4 9 11 6 16 -3 5 5 16 17 24 12 9 18
16 13 16 -5 0 12 21 38 46 27 26 52 42 58 38 8 -4 9 -3 5 5 -16 25 21 46 50
29 6 -4 11 -1 11 7 0 8 -8 12 -19 10 -12 -3 -18 1 -15 8 2 7 11 11 20 11 9 -1
16 1 15 5 -2 19 3 31 12 26 6 -3 10 0 10 8 0 8 17 33 39 56 21 22 37 41 34 41
-2 0 5 10 16 22 18 18 22 19 38 7 16 -12 17 -12 6 2 -7 9 -9 20 -5 24 4 5 1 5
-6 1 -6 -4 9 22 35 58 40 55 52 65 73 62 23 -4 23 -3 7 9 -17 12 -17 14 -2 23
9 5 17 13 17 18 -1 5 5 8 11 7 7 -2 13 9 13 23 2 33 33 67 49 54 8 -7 12 -5
12 5 0 8 -4 12 -9 9 -16 -10 -8 11 20 54 16 23 32 39 37 35 4 -5 5 -2 1 4 -9
16 17 56 29 45 5 -4 5 -2 1 5 -6 12 18 61 37 74 5 3 8 8 7 10 -5 11 35 77 43
72 6 -4 7 -1 2 6 -9 16 15 62 28 54 6 -3 7 -1 3 6 -12 19 4 53 21 46 13 -4 13
-3 4 9 -9 11 -8 15 3 19 9 4 12 14 9 26 -3 12 -1 21 6 21 6 0 10 3 9 8 -3 10
23 85 35 100 5 6 7 12 4 12 -3 0 3 26 14 58 22 61 27 79 28 100 1 7 6 10 13 6
7 -4 8 -3 4 4 -10 17 16 145 34 160 8 8 9 11 3 7 -9 -4 -13 1 -13 15 0 13 4
19 12 14 7 -5 8 -3 3 7 -11 17 -7 91 6 104 5 5 9 14 9 20 0 5 -4 4 -8 -3 -6
-8 -9 -2 -9 18 0 16 3 30 6 30 3 0 6 16 6 35 0 19 -4 35 -8 35 -4 0 -3 10 4
21 7 13 7 24 2 28 -6 3 -9 40 -9 83 1 42 -2 74 -5 72 -8 -4 -29 147 -23 158 3
4 1 8 -4 8 -5 0 -9 6 -9 13 0 6 -10 46 -22 87 -12 41 -23 83 -26 92 -2 9 -9
26 -15 38 -6 11 -8 25 -5 30 3 6 3 10 -2 10 -4 0 -17 21 -27 48 -31 78 -69
156 -85 175 -8 9 -11 17 -7 17 4 0 0 7 -9 16 -9 9 -14 23 -11 31 3 8 2 12 -3
8 -5 -3 -26 22 -46 56 -88 144 -273 341 -432 460 -34 26 -60 49 -57 51 2 3 -2
5 -9 5 -6 0 -48 22 -92 49 -91 56 -290 155 -290 144 0 -2 -16 4 -100 36 -11 4
-24 8 -30 9 -5 2 -39 10 -75 20 -137 36 -294 56 -463 59 -43 1 -79 1 -80 0z
m1004 -911 c13 -16 12 -17 -3 -4 -10 7 -18 15 -18 17 0 8 8 3 21 -13z m64 -63
c10 -11 16 -20 13 -20 -3 0 -13 9 -23 20 -10 11 -16 20 -13 20 3 0 13 -9 23
-20z m54 -74 c-3 -3 -11 5 -18 17 -13 21 -12 21 5 5 10 -10 16 -20 13 -22z
m115 -162 c3 -8 2 -12 -4 -9 -6 3 -10 10 -10 16 0 14 7 11 14 -7z m-1483 -861
c13 -16 12 -17 -3 -4 -10 7 -18 15 -18 17 0 8 8 3 21 -13z"/>
<path d="M6813 6081 c0 -11 5 -18 9 -15 4 3 5 11 1 19 -7 21 -12 19 -10 -4z"/>
<path d="M6846 5852 c-3 -5 1 -9 9 -9 8 0 12 4 9 9 -3 4 -7 8 -9 8 -2 0 -6 -4
-9 -8z"/>
<path d="M6873 5715 c0 -8 4 -12 9 -9 5 3 6 10 3 15 -9 13 -12 11 -12 -6z"/>
<path d="M6875 5619 c-4 -6 -5 -12 -2 -15 2 -3 7 2 10 11 7 17 1 20 -8 4z"/>
<path d="M11253 5445 c0 -8 4 -12 9 -9 5 3 6 10 3 15 -9 13 -12 11 -12 -6z"/>
<path d="M6836 5343 c-6 -14 -5 -15 5 -6 7 7 10 15 7 18 -3 3 -9 -2 -12 -12z"/>
<path d="M6869 5313 c-13 -16 -12 -17 4 -4 16 13 21 21 13 21 -2 0 -10 -8 -17
-17z"/>
<path d="M6835 5311 c-3 -5 -2 -12 3 -15 5 -3 9 1 9 9 0 17 -3 19 -12 6z"/>
<path d="M11299 5318 c-5 -18 -6 -38 -1 -34 7 8 12 36 6 36 -2 0 -4 -1 -5 -2z"/>
<path d="M6755 5149 c-3 -4 2 -6 10 -5 21 3 28 13 10 13 -9 0 -18 -4 -20 -8z"/>
<path d="M6846 5148 c3 -5 10 -6 15 -3 13 9 11 12 -6 12 -8 0 -12 -4 -9 -9z"/>
<path d="M11315 5150 c-3 -5 -1 -10 4 -10 6 0 11 5 11 10 0 6 -2 10 -4 10 -3
0 -8 -4 -11 -10z"/>
<path d="M11333 5101 c0 -11 5 -18 9 -15 4 3 5 11 1 19 -7 21 -12 19 -10 -4z"/>
<path d="M11333 5039 c-2 -23 3 -25 10 -4 4 8 3 16 -1 19 -4 3 -9 -4 -9 -15z"/>
<path d="M6629 4927 c6 -8 9 -16 6 -19 -3 -2 2 -5 10 -5 13 0 13 3 -2 19 -19
21 -31 25 -14 5z"/>
<path d="M6573 4877 c0 -16 34 -20 43 -5 4 7 2 8 -5 4 -6 -4 -18 -3 -25 3 -9
8 -13 7 -13 -2z"/>
<path d="M6685 4870 c-3 -6 1 -7 9 -4 18 7 21 14 7 14 -6 0 -13 -4 -16 -10z"/>
<path d="M11335 4850 c-3 -5 -1 -10 4 -10 6 0 11 5 11 10 0 6 -2 10 -4 10 -3
0 -8 -4 -11 -10z"/>
<path d="M6573 4835 c0 -8 4 -12 9 -9 5 3 6 10 3 15 -9 13 -12 11 -12 -6z"/>
<path d="M6514 4816 c1 -8 5 -18 8 -22 4 -3 5 1 4 10 -1 8 -5 18 -8 22 -4 3
-5 -1 -4 -10z"/>
<path d="M11335 4810 c-3 -5 -1 -10 4 -10 6 0 11 5 11 10 0 6 -2 10 -4 10 -3
0 -8 -4 -11 -10z"/>
<path d="M6579 4778 c-5 -18 -6 -38 -1 -34 7 8 12 36 6 36 -2 0 -4 -1 -5 -2z"/>
<path d="M6395 4731 c-3 -5 -2 -12 3 -15 5 -3 9 1 9 9 0 17 -3 19 -12 6z"/>
<path d="M6430 4686 c7 -7 13 -7 20 0 6 6 3 10 -10 10 -13 0 -16 -4 -10 -10z"/>
<path d="M6480 4690 c-8 -5 -10 -10 -5 -10 6 0 17 5 25 10 8 5 11 10 5 10 -5
0 -17 -5 -25 -10z"/>
<path d="M11336 4692 c-3 -4 4 -9 15 -9 23 -2 25 3 4 10 -8 4 -16 3 -19 -1z"/>
<path d="M6395 4671 c-3 -5 -2 -12 3 -15 5 -3 9 1 9 9 0 17 -3 19 -12 6z"/>
<path d="M6395 4630 c3 -5 8 -10 11 -10 2 0 4 5 4 10 0 6 -5 10 -11 10 -5 0
-7 -4 -4 -10z"/>
<path d="M11326 4632 c-3 -5 1 -9 9 -9 8 0 12 4 9 9 -3 4 -7 8 -9 8 -2 0 -6
-4 -9 -8z"/>
<path d="M6278 4603 c7 -3 16 -2 19 1 4 3 -2 6 -13 5 -11 0 -14 -3 -6 -6z"/>
<path d="M11273 4585 c0 -8 4 -12 9 -9 4 3 8 9 8 15 0 5 -4 9 -8 9 -5 0 -9 -7
-9 -15z"/>
<path d="M6226 4572 c-3 -5 1 -9 9 -9 8 0 12 4 9 9 -3 4 -7 8 -9 8 -2 0 -6 -4
-9 -8z"/>
<path d="M6300 4490 c8 -5 20 -10 25 -10 6 0 3 5 -5 10 -8 5 -19 10 -25 10 -5
0 -3 -5 5 -10z"/>
<path d="M11233 4455 c0 -8 4 -12 9 -9 5 3 6 10 3 15 -9 13 -12 11 -12 -6z"/>
<path d="M6190 4450 c0 -5 5 -10 11 -10 5 0 7 5 4 10 -3 6 -8 10 -11 10 -2 0
-4 -4 -4 -10z"/>
<path d="M6153 4435 c0 -8 4 -12 9 -9 5 3 6 10 3 15 -9 13 -12 11 -12 -6z"/>
<path d="M6216 4412 c-3 -5 1 -9 9 -9 8 0 12 4 9 9 -3 4 -7 8 -9 8 -2 0 -6 -4
-9 -8z"/>
<path d="M6113 4381 c0 -11 5 -18 9 -15 4 3 5 11 1 19 -7 21 -12 19 -10 -4z"/>
<path d="M11195 4371 c-3 -5 -2 -12 3 -15 5 -3 9 1 9 9 0 17 -3 19 -12 6z"/>
<path d="M11274 4310 c0 -13 4 -16 10 -10 7 7 7 13 0 20 -6 6 -10 3 -10 -10z"/>
<path d="M5995 4301 c-3 -5 -2 -12 3 -15 5 -3 9 1 9 9 0 17 -3 19 -12 6z"/>
<path d="M6029 4293 c-13 -16 -12 -17 4 -4 16 13 21 21 13 21 -2 0 -10 -8 -17
-17z"/>
<path d="M6086 4292 c-3 -5 1 -9 9 -9 8 0 12 4 9 9 -3 4 -7 8 -9 8 -2 0 -6 -4
-9 -8z"/>
<path d="M11174 4270 c0 -13 4 -16 10 -10 7 7 7 13 0 20 -6 6 -10 3 -10 -10z"/>
<path d="M6036 4263 c-6 -14 -5 -15 5 -6 7 7 10 15 7 18 -3 3 -9 -2 -12 -12z"/>
<path d="M11206 4252 c-3 -5 1 -9 9 -9 8 0 12 4 9 9 -3 4 -7 8 -9 8 -2 0 -6
-4 -9 -8z"/>
<path d="M6033 4225 c0 -8 4 -12 9 -9 5 3 6 10 3 15 -9 13 -12 11 -12 -6z"/>
<path d="M11155 4221 c-3 -5 -2 -12 3 -15 5 -3 9 1 9 9 0 17 -3 19 -12 6z"/>
<path d="M5950 4210 c0 -5 5 -10 11 -10 5 0 7 5 4 10 -3 6 -8 10 -11 10 -2 0
-4 -4 -4 -10z"/>
<path d="M6154 4190 c0 -13 4 -16 10 -10 7 7 7 13 0 20 -6 6 -10 3 -10 -10z"/>
<path d="M3390 4190 c0 -5 5 -10 11 -10 5 0 7 5 4 10 -3 6 -8 10 -11 10 -2 0
-4 -4 -4 -10z"/>
<path d="M5931 4184 c0 -11 3 -14 6 -6 3 7 2 16 -1 19 -3 4 -6 -2 -5 -13z"/>
<path d="M6006 4172 c-3 -5 1 -9 9 -9 8 0 12 4 9 9 -3 4 -7 8 -9 8 -2 0 -6 -4
-9 -8z"/>
<path d="M5955 4161 c-3 -5 -2 -12 3 -15 5 -3 9 1 9 9 0 17 -3 19 -12 6z"/>
<path d="M11175 4130 c3 -5 8 -10 11 -10 2 0 4 5 4 10 0 6 -5 10 -11 10 -5 0
-7 -4 -4 -10z"/>
<path d="M5995 4121 c-3 -5 -2 -12 3 -15 5 -3 9 1 9 9 0 17 -3 19 -12 6z"/>
<path d="M5914 4086 c0 -12 6 -23 13 -23 9 0 10 4 3 12 -5 7 -7 14 -4 17 3 3
1 8 -3 11 -5 3 -9 -5 -9 -17z"/>
<path d="M11136 4048 c3 -4 11 -5 19 -1 21 7 19 12 -4 10 -11 0 -18 -5 -15 -9z"/>
<path d="M5906 4035 c-11 -8 -15 -15 -9 -15 6 0 16 7 23 15 16 19 11 19 -14 0z"/>
<path d="M11090 4009 c0 -5 5 -7 10 -4 6 3 10 8 10 11 0 2 -4 4 -10 4 -5 0
-10 -5 -10 -11z"/>
<path d="M5915 3999 c-4 -6 -5 -12 -2 -15 2 -3 7 2 10 11 7 17 1 20 -8 4z"/>
<path d="M11015 3991 c-3 -5 -2 -12 3 -15 5 -3 9 1 9 9 0 17 -3 19 -12 6z"/>
<path d="M5933 3965 c0 -8 4 -12 9 -9 5 3 6 10 3 15 -9 13 -12 11 -12 -6z"/>
<path d="M11020 3956 c0 -2 8 -10 18 -17 15 -13 16 -12 3 4 -13 16 -21 21 -21
13z"/>
<path d="M5844 3908 c-12 -14 -13 -18 -3 -10 9 6 18 10 21 7 2 -3 5 2 5 10 0
19 0 19 -23 -7z"/>
<path d="M10976 3912 c-3 -5 1 -9 9 -9 8 0 12 4 9 9 -3 4 -7 8 -9 8 -2 0 -6
-4 -9 -8z"/>
<path d="M5836 3872 c-2 -4 9 -8 25 -8 33 -2 33 4 1 11 -12 2 -24 1 -26 -3z"/>
<path d="M11014 3866 c1 -8 5 -18 8 -22 4 -3 5 1 4 10 -1 8 -5 18 -8 22 -4 3
-5 -1 -4 -10z"/>
<path d="M10954 3846 c0 -12 6 -23 13 -23 9 0 10 4 3 12 -5 7 -7 14 -4 17 3 3
1 8 -3 11 -5 3 -9 -5 -9 -17z"/>
<path d="M10910 3826 c0 -2 8 -10 18 -17 15 -13 16 -12 3 4 -13 16 -21 21 -21
13z"/>
<path d="M10950 3771 c0 -6 4 -13 10 -16 6 -3 7 1 4 9 -7 18 -14 21 -14 7z"/>
<path d="M10865 3750 c-3 -6 1 -7 9 -4 18 7 21 14 7 14 -6 0 -13 -4 -16 -10z"/>
<path d="M11000 3710 c-9 -6 -10 -10 -3 -10 6 0 15 5 18 10 8 12 4 12 -15 0z"/>
<path d="M10866 3692 c-3 -5 1 -9 9 -9 8 0 12 4 9 9 -3 4 -7 8 -9 8 -2 0 -6
-4 -9 -8z"/>
<path d="M10835 3661 c-3 -5 -2 -12 3 -15 5 -3 9 1 9 9 0 17 -3 19 -12 6z"/>
<path d="M10775 3631 c-3 -5 -2 -12 3 -15 5 -3 9 1 9 9 0 17 -3 19 -12 6z"/>
<path d="M10739 3583 c-13 -17 -13 -17 6 -3 11 8 22 16 24 17 2 2 0 3 -6 3 -6
0 -17 -8 -24 -17z"/>
<path d="M10760 3570 c-9 -6 -10 -10 -3 -10 6 0 15 5 18 10 8 12 4 12 -15 0z"/>
<path d="M10770 3489 c0 -5 5 -7 10 -4 6 3 10 8 10 11 0 2 -4 4 -10 4 -5 0
-10 -5 -10 -11z"/>
<path d="M10676 3477 c3 -10 9 -15 12 -12 3 3 0 11 -7 18 -10 9 -11 8 -5 -6z"/>
<path d="M10660 3456 c0 -2 8 -10 18 -17 15 -13 16 -12 3 4 -13 16 -21 21 -21
13z"/>
<path d="M10596 3391 c-3 -5 2 -15 12 -22 15 -12 16 -12 5 2 -7 9 -10 19 -6
22 3 4 4 7 0 7 -3 0 -8 -4 -11 -9z"/>
<path d="M10633 3385 c0 -8 4 -12 9 -9 5 3 6 10 3 15 -9 13 -12 11 -12 -6z"/>
<path d="M10696 3372 c-3 -5 1 -9 9 -9 8 0 12 4 9 9 -3 4 -7 8 -9 8 -2 0 -6
-4 -9 -8z"/>
<path d="M8310 3330 c0 -5 5 -10 11 -10 5 0 7 5 4 10 -3 6 -8 10 -11 10 -2 0
-4 -4 -4 -10z"/>
<path d="M4333 3305 c0 -8 4 -12 9 -9 5 3 6 10 3 15 -9 13 -12 11 -12 -6z"/>
<path d="M5906 3192 c-3 -5 1 -9 9 -9 8 0 15 4 15 9 0 4 -4 8 -9 8 -6 0 -12
-4 -15 -8z"/>
<path d="M10473 3185 c0 -8 4 -12 9 -9 5 3 6 10 3 15 -9 13 -12 11 -12 -6z"/>
<path d="M10526 3192 c-3 -5 1 -9 9 -9 8 0 12 4 9 9 -3 4 -7 8 -9 8 -2 0 -6
-4 -9 -8z"/>
<path d="M8475 3170 c3 -5 8 -10 11 -10 2 0 4 5 4 10 0 6 -5 10 -11 10 -5 0
-7 -4 -4 -10z"/>
<path d="M4556 3152 c-3 -5 1 -9 9 -9 8 0 12 4 9 9 -3 4 -7 8 -9 8 -2 0 -6 -4
-9 -8z"/>
<path d="M10470 3156 c0 -2 7 -7 16 -10 8 -3 12 -2 9 4 -6 10 -25 14 -25 6z"/>
<path d="M10360 3115 c0 -2 6 -8 13 -14 10 -8 14 -7 14 2 0 8 -6 14 -14 14 -7
0 -13 -1 -13 -2z"/>
<path d="M10319 3083 c-13 -16 -12 -17 4 -4 16 13 21 21 13 21 -2 0 -10 -8
-17 -17z"/>
<path d="M4715 3050 c3 -5 8 -10 11 -10 2 0 4 5 4 10 0 6 -5 10 -11 10 -5 0
-7 -4 -4 -10z"/>
<path d="M10280 3050 c-9 -6 -10 -10 -3 -10 6 0 15 5 18 10 8 12 4 12 -15 0z"/>
<path d="M10313 3023 c0 -9 4 -10 14 -2 7 6 13 12 13 14 0 1 -6 2 -13 2 -8 0
-14 -6 -14 -14z"/>
<path d="M4773 3015 c0 -8 4 -12 9 -9 5 3 6 10 3 15 -9 13 -12 11 -12 -6z"/>
<path d="M10228 3013 c6 -2 18 -2 25 0 6 3 1 5 -13 5 -14 0 -19 -2 -12 -5z"/>
<path d="M4715 2990 c-3 -5 -1 -10 4 -10 6 0 11 5 11 10 0 6 -2 10 -4 10 -3 0
-8 -4 -11 -10z"/>
<path d="M4819 2998 c-5 -18 -6 -38 -1 -34 7 8 12 36 6 36 -2 0 -4 -1 -5 -2z"/>
<path d="M10216 2988 c3 -4 11 -5 19 -1 21 7 19 12 -4 10 -11 0 -18 -5 -15 -9z"/>
<path d="M10266 2992 c-3 -5 1 -9 9 -9 8 0 12 4 9 9 -3 4 -7 8 -9 8 -2 0 -6
-4 -9 -8z"/>
<path d="M10306 2988 c3 -5 10 -6 15 -3 13 9 11 12 -6 12 -8 0 -12 -4 -9 -9z"/>
<path d="M10190 2945 c5 -7 8 -14 5 -17 -3 -2 2 -5 10 -5 10 0 12 4 5 12 -5 7
-8 14 -5 17 3 2 -2 5 -10 5 -10 0 -12 -4 -5 -12z"/>
<path d="M10146 2933 c-6 -14 -5 -15 5 -6 7 7 10 15 7 18 -3 3 -9 -2 -12 -12z"/>
<path d="M10250 2929 c0 -5 5 -7 10 -4 6 3 10 8 10 11 0 2 -4 4 -10 4 -5 0
-10 -5 -10 -11z"/>
<path d="M10126 2872 l-19 -27 24 22 c12 12 21 24 18 27 -2 2 -13 -8 -23 -22z"/>
<path d="M10155 2859 c-4 -6 -5 -12 -2 -15 2 -3 7 2 10 11 7 17 1 20 -8 4z"/>
<path d="M5056 2852 c-2 -4 -1 -14 4 -22 7 -11 9 -9 7 8 -1 24 -3 26 -11 14z"/>
<path d="M10055 2851 c-10 -17 17 -24 31 -7 8 9 9 11 2 6 -16 -13 -31 -13 -23
0 3 6 4 10 1 10 -3 0 -7 -4 -11 -9z"/>
<path d="M10015 2829 c-4 -6 -4 -13 -1 -16 3 -4 6 0 6 7 0 9 7 7 23 -6 l22
-19 -19 23 c-22 25 -23 26 -31 11z"/>
<path d="M10013 2783 c0 -9 4 -10 14 -2 7 6 13 12 13 14 0 1 -6 2 -13 2 -8 0
-14 -6 -14 -14z"/>
<path d="M5205 2770 c-3 -6 1 -7 9 -4 18 7 21 14 7 14 -6 0 -13 -4 -16 -10z"/>
<path d="M7886 2772 c-3 -5 1 -9 9 -9 8 0 12 4 9 9 -3 4 -7 8 -9 8 -2 0 -6 -4
-9 -8z"/>
<path d="M5354 2759 c-3 -6 -2 -15 3 -20 5 -5 9 -1 9 11 0 23 -2 24 -12 9z"/>
<path d="M9976 2743 c-6 -14 -5 -15 5 -6 7 7 10 15 7 18 -3 3 -9 -2 -12 -12z"/>
<path d="M10067 2749 c7 -7 15 -10 18 -7 3 3 -2 9 -12 12 -14 6 -15 5 -6 -5z"/>
<path d="M7890 2729 c0 -5 5 -7 10 -4 6 3 10 8 10 11 0 2 -4 4 -10 4 -5 0 -10
-5 -10 -11z"/>
<path d="M8970 2736 c0 -2 7 -7 16 -10 8 -3 12 -2 9 4 -6 10 -25 14 -25 6z"/>
<path d="M9908 2713 c7 -3 16 -2 19 1 4 3 -2 6 -13 5 -11 0 -14 -3 -6 -6z"/>
<path d="M9959 2703 c-13 -16 -12 -17 4 -4 16 13 21 21 13 21 -2 0 -10 -8 -17
-17z"/>
<path d="M9871 2697 c-8 -10 -7 -14 2 -14 8 0 14 6 14 14 0 7 -1 13 -2 13 -2
0 -8 -6 -14 -13z"/>
<path d="M9906 2692 c-2 -4 4 -8 14 -8 10 0 16 4 14 8 -3 4 -9 8 -14 8 -5 0
-11 -4 -14 -8z"/>
<path d="M10014 2686 c1 -8 5 -18 8 -22 4 -3 5 1 4 10 -1 8 -5 18 -8 22 -4 3
-5 -1 -4 -10z"/>
<path d="M7854 2670 c0 -13 4 -16 10 -10 7 7 7 13 0 20 -6 6 -10 3 -10 -10z"/>
<path d="M7893 2661 c0 -11 5 -18 9 -15 4 3 5 11 1 19 -7 21 -12 19 -10 -4z"/>
<path d="M5526 2648 c3 -5 10 -6 15 -3 13 9 11 12 -6 12 -8 0 -12 -4 -9 -9z"/>
<path d="M9093 2635 c0 -8 4 -12 9 -9 5 3 6 10 3 15 -9 13 -12 11 -12 -6z"/>
<path d="M5657 2625 c-4 -8 -3 -16 1 -19 4 -3 9 4 9 15 2 23 -3 25 -10 4z"/>
<path d="M9895 2630 c3 -5 8 -10 11 -10 2 0 4 5 4 10 0 6 -5 10 -11 10 -5 0
-7 -4 -4 -10z"/>
<path d="M5794 2616 c1 -8 5 -18 8 -22 4 -3 5 1 4 10 -1 8 -5 18 -8 22 -4 3
-5 -1 -4 -10z"/>
<path d="M7794 2603 c16 -20 36 -23 36 -6 0 4 -3 3 -7 0 -3 -4 -16 1 -27 10
-21 18 -21 18 -2 -4z"/>
<path d="M9755 2610 c-3 -5 -1 -10 4 -10 6 0 11 5 11 10 0 6 -2 10 -4 10 -3 0
-8 -4 -11 -10z"/>
<path d="M9170 2569 c0 -5 5 -7 10 -4 6 3 10 8 10 11 0 2 -4 4 -10 4 -5 0 -10
-5 -10 -11z"/>
<path d="M6096 2548 c3 -5 10 -6 15 -3 13 9 11 12 -6 12 -8 0 -12 -4 -9 -9z"/>
<path d="M7685 2550 c-5 -7 52 -6 60 1 2 3 -9 5 -26 5 -16 0 -32 -3 -34 -6z"/>
<path d="M7796 2548 c3 -5 10 -6 15 -3 13 9 11 12 -6 12 -8 0 -12 -4 -9 -9z"/>
<path d="M9695 2550 c-2 -4 8 -6 23 -5 15 1 34 -3 42 -9 12 -8 13 -8 2 4 -13
15 -60 22 -67 10z"/>
<path d="M9785 2550 c-3 -6 1 -7 9 -4 18 7 21 14 7 14 -6 0 -13 -4 -16 -10z"/>
<path d="M5975 2541 c-3 -5 -2 -12 3 -15 5 -3 9 1 9 9 0 17 -3 19 -12 6z"/>
<path d="M7515 2519 c-4 -6 -5 -12 -2 -15 2 -3 7 2 10 11 7 17 1 20 -8 4z"/>
<path d="M7571 2517 c-8 -10 -7 -14 2 -14 8 0 14 6 14 14 0 7 -1 13 -2 13 -2
0 -8 -6 -14 -13z"/>
<path d="M9637 2520 c7 -8 20 -15 29 -16 9 -1 13 1 9 4 -4 4 -10 7 -13 7 -4 0
-14 4 -22 9 -12 7 -13 6 -3 -4z"/>
<path d="M7633 2503 c0 -9 4 -10 14 -2 7 6 13 12 13 14 0 1 -6 2 -13 2 -8 0
-14 -6 -14 -14z"/>
<path d="M7690 2509 c0 -5 5 -7 10 -4 6 3 10 8 10 11 0 2 -4 4 -10 4 -5 0 -10
-5 -10 -11z"/>
<path d="M9730 2509 c0 -5 5 -7 10 -4 6 3 10 8 10 11 0 2 -4 4 -10 4 -5 0 -10
-5 -10 -11z"/>
<path d="M6094 2492 c4 -3 14 -7 22 -8 9 -1 13 0 10 4 -4 3 -14 7 -22 8 -9 1
-13 0 -10 -4z"/>
<path d="M6693 2485 c0 -8 4 -12 9 -9 5 3 6 10 3 15 -9 13 -12 11 -12 -6z"/>
<path d="M7394 2474 c0 -20 11 -25 11 -6 0 4 3 12 7 18 4 6 1 11 -5 11 -7 0
-13 -11 -13 -23z"/>
<path d="M9554 2483 c16 -20 36 -23 36 -6 0 4 -3 3 -7 0 -3 -4 -16 1 -27 10
-21 18 -21 18 -2 -4z"/>
<path d="M7073 2477 c0 -8 6 -14 14 -14 9 0 10 4 2 14 -6 7 -12 13 -14 13 -1
0 -2 -6 -2 -13z"/>
<path d="M7113 2475 c0 -8 4 -12 9 -9 5 3 6 10 3 15 -9 13 -12 11 -12 -6z"/>
<path d="M7294 2479 c-3 -6 -2 -15 3 -20 5 -5 9 -1 9 11 0 23 -2 24 -12 9z"/>
<path d="M6330 2470 c0 -5 5 -10 11 -10 5 0 7 5 4 10 -3 6 -8 10 -11 10 -2 0
-4 -4 -4 -10z"/>
<path d="M6410 2469 c0 -5 5 -7 10 -4 6 3 10 8 10 11 0 2 -4 4 -10 4 -5 0 -10
-5 -10 -11z"/>
<path d="M6730 2471 c0 -6 4 -13 10 -16 6 -3 7 1 4 9 -7 18 -14 21 -14 7z"/>
<path d="M6970 2471 c0 -6 4 -13 10 -16 6 -3 7 1 4 9 -7 18 -14 21 -14 7z"/>
<path d="M7466 2468 c3 -5 10 -6 15 -3 13 9 11 12 -6 12 -8 0 -12 -4 -9 -9z"/>
<path d="M9395 2470 c3 -5 8 -10 11 -10 2 0 4 5 4 10 0 6 -5 10 -11 10 -5 0
-7 -4 -4 -10z"/>
<path d="M9430 2470 c0 -5 9 -8 20 -7 21 1 18 10 -5 13 -8 1 -15 -2 -15 -6z"/>
<path d="M9653 2455 c0 -8 4 -12 9 -9 5 3 6 10 3 15 -9 13 -12 11 -12 -6z"/>
<path d="M6233 2445 c0 -8 4 -12 9 -9 5 3 6 10 3 15 -9 13 -12 11 -12 -6z"/>
<path d="M7534 2452 c4 -3 14 -7 22 -8 9 -1 13 0 10 4 -4 3 -14 7 -22 8 -9 1
-13 0 -10 -4z"/>
<path d="M6436 2437 c3 -10 9 -15 12 -12 3 3 0 11 -7 18 -10 9 -11 8 -5 -6z"/>
<path d="M6730 2430 c0 -5 5 -10 11 -10 5 0 7 5 4 10 -3 6 -8 10 -11 10 -2 0
-4 -4 -4 -10z"/>
<path d="M6897 2425 c-4 -8 -3 -16 1 -19 4 -3 9 4 9 15 2 23 -3 25 -10 4z"/>
<path d="M6935 2430 c3 -5 8 -10 11 -10 2 0 4 5 4 10 0 6 -5 10 -11 10 -5 0
-7 -4 -4 -10z"/>
<path d="M7169 2427 c6 -8 7 -18 3 -22 -4 -5 -1 -5 6 -1 10 6 10 11 1 22 -6 8
-14 14 -16 14 -3 0 0 -6 6 -13z"/>
<path d="M7280 2430 c-9 -6 -10 -10 -3 -10 6 0 15 5 18 10 8 12 4 12 -15 0z"/>
<path d="M7375 2429 c-3 -4 2 -6 10 -5 21 3 28 13 10 13 -9 0 -18 -4 -20 -8z"/>
<path d="M9385 2390 c-3 -6 1 -7 9 -4 18 7 21 14 7 14 -6 0 -13 -4 -16 -10z"/>
</g>
</svg>
