<?xml version="1.0" standalone="no"?>
<!DOCTYPE svg PUBLIC "-//W3C//DTD SVG 20010904//EN"
 "http://www.w3.org/TR/2001/REC-SVG-20010904/DTD/svg10.dtd">
<svg version="1.0" xmlns="http://www.w3.org/2000/svg"
 width="715.000000pt" height="715.000000pt" viewBox="0 0 715.000000 715.000000"
 preserveAspectRatio="xMidYMid meet">
<metadata>
Created by potrace 1.14, written by Peter Selinger 2001-2017
</metadata>
<g transform="translate(0.000000,715.000000) scale(0.100000,-0.100000)"
fill="#000000" stroke="none">
<path d="M3547 6713 c-1 -1 -49 -4 -107 -8 -114 -6 -173 -12 -235 -21 -22 -3
-51 -7 -65 -9 -14 -2 -25 -4 -25 -5 0 -1 -12 -3 -26 -5 -62 -8 -107 -16 -144
-26 -22 -6 -50 -13 -62 -15 -12 -2 -35 -9 -50 -15 -16 -6 -29 -10 -30 -10 -2
1 -4 1 -5 0 -2 0 -11 -2 -20 -4 -48 -9 -164 -49 -170 -59 -4 -6 -8 -8 -8 -4 0
7 -95 -25 -160 -53 -14 -6 -38 -17 -55 -24 -85 -37 -218 -104 -283 -142 -41
-24 -77 -43 -81 -43 -5 0 -20 -11 -35 -25 -14 -13 -26 -22 -26 -20 0 7 -164
-108 -168 -117 -2 -4 -8 -8 -14 -8 -8 0 -67 -44 -125 -95 -6 -5 -37 -32 -69
-60 -75 -65 -246 -236 -304 -305 -25 -29 -49 -58 -55 -64 -78 -85 -307 -429
-308 -463 0 -7 -4 -13 -8 -13 -8 0 -138 -264 -143 -290 -1 -3 -16 -43 -35 -88
-18 -46 -34 -89 -35 -95 -1 -7 -5 -17 -8 -23 -4 -6 -9 -22 -12 -37 -2 -15 -7
-31 -10 -36 -3 -5 -19 -62 -36 -127 -38 -148 -39 -152 -44 -189 -3 -16 -9 -54
-15 -84 -6 -29 -8 -57 -5 -62 3 -5 2 -9 -3 -9 -4 0 -8 -12 -9 -27 0 -16 -5
-62 -10 -103 -11 -95 -12 -510 -1 -612 12 -113 19 -162 32 -228 3 -14 7 -38 9
-55 5 -36 42 -192 60 -255 47 -158 94 -290 108 -307 6 -7 8 -13 5 -13 -16 0
164 -365 188 -382 6 -4 7 -8 3 -8 -7 0 29 -59 52 -87 5 -7 10 -15 10 -18 0
-14 181 -265 192 -265 4 0 8 -7 8 -15 0 -7 6 -18 13 -22 6 -4 30 -30 52 -57
47 -59 217 -232 296 -302 59 -52 68 -59 139 -114 25 -19 47 -38 48 -42 2 -5
10 -8 17 -8 7 0 15 -4 17 -9 4 -10 198 -143 198 -136 0 3 9 -2 19 -12 11 -10
44 -31 75 -46 31 -16 58 -33 61 -38 4 -5 15 -9 26 -9 10 0 19 -4 19 -9 0 -10
27 -21 44 -20 5 0 12 -3 15 -8 8 -12 106 -57 216 -100 49 -19 99 -39 110 -44
21 -9 194 -63 255 -79 94 -26 146 -37 205 -45 11 -1 27 -5 36 -9 9 -4 20 -6
25 -5 5 1 11 1 14 -1 3 -1 19 -3 35 -5 17 -2 50 -7 75 -11 200 -28 529 -33
715 -10 22 3 63 7 90 11 28 3 66 8 85 11 19 3 44 7 55 9 11 2 34 6 50 10 17 3
44 9 60 12 17 3 37 9 46 14 9 4 19 6 21 3 3 -2 18 0 34 7 16 6 38 12 49 14 26
5 59 13 63 15 1 2 7 4 12 5 6 1 11 3 13 5 1 1 9 3 18 5 25 5 168 55 234 82
133 54 299 133 303 144 2 5 10 9 18 9 8 0 32 11 52 25 20 14 42 25 49 25 7 0
13 5 13 10 0 6 5 10 10 10 9 0 91 54 274 180 11 8 25 20 29 27 4 7 15 13 23
13 8 0 12 5 9 10 -3 6 -1 10 6 10 6 0 37 21 68 47 80 68 291 275 287 282 -2 3
2 12 10 19 8 7 14 10 14 7 0 -4 25 24 55 62 31 37 70 86 88 107 17 21 31 43
30 48 -2 4 1 8 5 8 12 0 142 195 204 305 64 115 188 378 188 399 0 7 3 16 7
20 4 3 8 12 10 19 1 7 23 73 48 147 25 74 47 146 48 160 2 14 6 30 9 36 4 5 9
27 13 49 4 22 10 49 12 60 7 34 41 237 47 285 23 174 24 511 1 680 -2 19 -7
59 -10 89 -4 30 -9 63 -11 75 -2 12 -7 38 -9 60 -3 21 -10 46 -15 56 -5 9 -7
19 -5 22 9 9 -88 360 -120 433 -7 17 -27 67 -45 112 -64 163 -251 507 -312
573 -10 11 -18 23 -18 28 0 4 -8 17 -18 28 -11 11 -21 25 -23 30 -5 14 -66 89
-101 126 -14 15 -24 28 -21 28 3 0 -8 14 -26 30 -17 17 -31 33 -31 37 0 3 -56
62 -125 131 -69 68 -125 122 -125 119 0 -3 -20 14 -44 37 -60 55 -123 105
-231 182 -102 72 -315 200 -327 197 -4 -2 -8 1 -8 6 0 10 -39 27 -52 23 -5 -1
-8 2 -8 7 0 14 -328 154 -341 145 -5 -3 -9 -1 -9 3 0 5 -17 14 -37 20 -21 6
-76 23 -123 37 -47 15 -94 28 -105 30 -11 2 -47 11 -80 19 -77 20 -163 36
-225 42 -19 2 -35 4 -35 5 0 12 -497 45 -508 33z"/>
</g>
</svg>
